<?xml version="1.0" encoding="UTF-8"?>
<svg version="1.1" xmlns="http://www.w3.org/2000/svg" width="512" height="512">
<path d="M0 0 C0.67282013 0.00304138 1.34564026 0.00608276 2.03884888 0.00921631 C13.02734333 0.08236565 23.22297938 1.0178581 33.6875 4.4375 C34.7077124 4.75895996 34.7077124 4.75895996 35.74853516 5.08691406 C48.46424959 9.18145159 60.04552706 15.32933014 70.6875 23.4375 C74.19892787 21.78307725 77.40888163 19.76074397 80.6875 17.6875 C99.78267666 5.86539836 118.88943388 0.01650642 141.4375 0.125 C143.28456543 0.13345947 143.28456543 0.13345947 145.16894531 0.14208984 C167.9742339 0.44555943 190.50091132 7.34549856 208.21484375 22.09375 C210.61178825 23.74960226 210.61178825 23.74960226 213.2265625 22.85546875 C215.66711941 21.4492431 217.87999395 19.95029054 220.125 18.25 C230.98970806 10.53076134 242.83999978 5.70425594 255.6875 2.4375 C256.41396729 2.25058594 257.14043457 2.06367187 257.88891602 1.87109375 C265.27537517 0.17427614 272.56976416 0.05149839 280.125 0.0625 C280.78535248 0.06337616 281.44570496 0.06425232 282.12606812 0.06515503 C311.24754109 0.19223087 334.91286135 10.27295761 356.6875 29.4375 C357.29722656 29.9634375 357.90695312 30.489375 358.53515625 31.03125 C373.83575154 45.21052506 383.05564476 64.71915524 388.6875 84.4375 C389.19990234 86.14873047 389.19990234 86.14873047 389.72265625 87.89453125 C395.93017727 112.69574314 392.53494694 139.49693867 379.81738281 161.56298828 C373.60358866 171.87187149 366.06249321 180.82356262 357.6875 189.4375 C357.15688965 189.99147461 356.6262793 190.54544922 356.07958984 191.11621094 C351.89237177 195.41608427 347.46747141 199.18824807 342.6875 202.8125 C341.58208862 203.65276733 341.58208862 203.65276733 340.4543457 204.51000977 C313.82062576 224.4375 313.82062576 224.4375 303.6875 224.4375 C303.69118717 225.49548168 303.69487434 226.55346336 303.69867325 227.6435051 C303.78739931 253.36478497 303.85316868 279.08604504 303.89474869 304.80744553 C303.91538998 317.24603457 303.94354058 329.68452264 303.98925781 342.12304688 C304.02907752 352.962151 304.0549214 363.80118202 304.06385398 374.64035726 C304.06907695 380.38173677 304.0813855 386.12290708 304.11042023 391.86421967 C304.13751235 397.26501524 304.14595752 402.66551485 304.13993073 408.06637192 C304.14103374 410.0513787 304.14902436 412.03639509 304.1643219 414.02134323 C304.18415277 416.72657071 304.17946457 419.4306731 304.16851807 422.13592529 C304.18016943 422.92580928 304.1918208 423.71569326 304.20382524 424.52951312 C304.1673589 427.85162214 304.05789287 429.94875593 302.01982147 432.6380499 C299.08986803 434.89858949 297.5528082 434.93768933 293.87816525 434.93807125 C292.68421326 434.94788554 291.49026127 434.95769983 290.26012892 434.96781152 C288.94701327 434.95820652 287.63389763 434.94860151 286.2809906 434.93870544 C284.87311381 434.94259717 283.46524095 434.94823658 282.0573774 434.95547634 C278.18413068 434.97026758 274.31128899 434.96002831 270.43805516 434.94573963 C266.26282102 434.93465452 262.08764484 434.9465642 257.91241455 434.95558167 C249.73166007 434.96953262 241.55105968 434.96194448 233.3703125 434.94690608 C223.84969056 434.93006893 214.32910725 434.9332533 204.80847502 434.93700016 C187.82549186 434.94288206 170.84258279 434.92869383 153.85961914 434.90405273 C137.36805443 434.88012721 120.87658871 434.87304952 104.38500977 434.88354492 C86.43909834 434.89494536 68.49323272 434.89689531 50.54732186 434.88244683 C48.63502857 434.88092094 46.72273527 434.87940058 44.81044197 434.87788582 C43.86948246 434.877128 42.92852294 434.87637019 41.9590495 434.87558941 C35.31743904 434.87084011 28.67584898 434.87270256 22.03423882 434.87695122 C13.94480498 434.88186975 5.85546487 434.87592986 -2.23394746 434.85605692 C-6.36391041 434.84616211 -10.49373044 434.84110329 -14.6237011 434.84894943 C-18.40052073 434.85597805 -22.17705126 434.84926835 -25.95383262 434.8313458 C-27.97550762 434.82535047 -29.99720954 434.83415499 -32.01887232 434.84339231 C-33.80588868 434.8307324 -33.80588868 434.8307324 -35.62900639 434.81781673 C-36.661576 434.8167876 -37.6941456 434.81575848 -38.7580052 434.81469816 C-41.3125 434.4375 -41.3125 434.4375 -43.1436708 433.13689923 C-45.16983842 430.19098746 -44.73244259 426.74675062 -44.71122742 423.29414368 C-44.71787424 422.45445217 -44.72452107 421.61476066 -44.73136932 420.74962395 C-44.7500754 417.92581551 -44.74738894 415.10242794 -44.74487305 412.27856445 C-44.75388556 410.25843707 -44.76421152 408.23831518 -44.77575684 406.21820068 C-44.80341287 400.72473757 -44.81262302 395.23137797 -44.81861091 389.73785424 C-44.82797223 384.00025825 -44.85417373 378.26274026 -44.87861633 372.52519226 C-44.92234686 361.65614721 -44.95085355 350.78711725 -44.97393972 339.91801089 C-45.0009563 327.54570151 -45.04486996 315.17347034 -45.09022844 302.80121672 C-45.18316856 277.34668684 -45.25480636 251.89213243 -45.3125 226.4375 C-46.41529297 225.89299194 -47.51808594 225.34848389 -48.65429688 224.78747559 C-50.1133446 224.06352285 -51.57232546 223.33943534 -53.03125 222.61523438 C-53.75666992 222.25749939 -54.48208984 221.8997644 -55.22949219 221.53118896 C-60.23807815 219.04044426 -64.89775891 216.39322426 -69.3125 212.9375 C-69.95783691 212.4410498 -70.60317383 211.94459961 -71.26806641 211.43310547 C-96.6641696 191.36288234 -116.18633944 163.10887754 -120.3125 130.4375 C-121.36571292 114.5889301 -121.30325208 98.62774311 -116.3125 83.4375 C-116.10351074 82.79748047 -115.89452148 82.15746094 -115.67919922 81.49804688 C-110.67141824 66.74853766 -102.86563623 52.89896564 -92.3125 41.4375 C-91.83828613 40.9209082 -91.36407227 40.40431641 -90.87548828 39.87207031 C-76.50921911 24.3992908 -59.24661767 12.86470404 -39.1875 6.0625 C-38.52073242 5.83594727 -37.85396484 5.60939453 -37.16699219 5.37597656 C-24.88373776 1.48442621 -12.84906498 -0.1017396 0 0 Z M-80.3125 50.4375 C-95.84454046 67.58292209 -104.38890283 87.4077672 -106.3125 110.4375 C-106.3846875 111.25992188 -106.456875 112.08234375 -106.53125 112.9296875 C-107.14080932 127.60990782 -103.13354616 142.12613708 -97.3125 155.4375 C-96.8484375 156.50613281 -96.384375 157.57476562 -95.90625 158.67578125 C-84.63798598 182.80864669 -63.36138451 201.70771626 -39.15234375 212.1484375 C-36.30641209 213.44026343 -33.82761706 214.57395437 -31.3125 216.4375 C-30.68164349 218.83690166 -30.68164349 218.83690166 -30.67326355 221.73356628 C-30.65797954 222.82924769 -30.64269552 223.9249291 -30.62694836 225.05381298 C-30.63557054 226.26090577 -30.64419271 227.46799856 -30.65307617 228.71166992 C-30.64256131 230.00061566 -30.63204645 231.28956141 -30.62121296 232.61756611 C-30.59324992 236.10659535 -30.5952742 239.59500704 -30.60346222 243.08411407 C-30.60661382 246.35716988 -30.58278654 249.62998086 -30.56115723 252.9029541 C-30.51363448 262.47687316 -30.50947122 272.05096768 -30.5 281.625 C-30.438125 303.013125 -30.37625 324.40125 -30.3125 346.4375 C19.8475 346.4375 70.0075 346.4375 121.6875 346.4375 C121.93715837 320.94785025 121.93715837 320.94785025 122.16552734 295.45800781 C122.2199707 290.52490234 122.2199707 290.52490234 122.24795532 288.21453857 C122.26562525 286.60308306 122.27943724 284.99158242 122.29019165 283.38006592 C122.30724709 280.93710302 122.33659264 278.49456375 122.36865234 276.05175781 C122.37082449 275.33541798 122.37299664 274.61907814 122.3752346 273.88103104 C122.48527504 267.36398143 122.48527504 267.36398143 124.6875 264.4375 C128.19390159 263.46349956 130.5116489 262.89269379 133.87994385 264.45332336 C136.55639716 267.39129911 136.25919328 270.341217 136.23339844 274.12182617 C136.24890495 275.29291176 136.24890495 275.29291176 136.26472473 276.48765564 C136.29422798 279.068802 136.29565344 281.64916679 136.296875 284.23046875 C136.31185163 286.01981611 136.32857768 287.80914961 136.34698486 289.59846497 C136.39072894 294.30846785 136.41067302 299.01828425 136.42572021 303.72845459 C136.4487023 309.37954573 136.5011399 315.0304305 136.54866028 320.68135834 C136.61754975 329.2667929 136.64893784 337.85163427 136.6875 346.4375 C150.2175 346.4375 163.7475 346.4375 177.6875 346.4375 C177.70208252 342.36365967 177.71666504 338.28981934 177.73168945 334.0925293 C177.78194613 320.65743829 177.84837367 307.22246851 177.92321491 293.78749371 C177.96820969 285.63902261 178.00761576 277.49059559 178.03393555 269.34204102 C178.05688592 262.24101575 178.09025052 255.1401295 178.13620156 248.03921443 C178.16017399 244.27816843 178.1788763 240.51726046 178.18511391 236.75613976 C178.19226658 232.56077763 178.22266611 228.36589691 178.25512695 224.1706543 C178.25369186 222.91909042 178.25225677 221.66752655 178.2507782 220.3780365 C178.26331635 219.23800171 178.27585449 218.09796692 178.28877258 216.92338562 C178.29338155 215.93061458 178.29799051 214.93784353 178.30273914 213.91498852 C178.6875 211.4375 178.6875 211.4375 179.99367046 209.6219759 C182.86580762 207.61352277 185.3181743 208.01633429 188.6875 208.4375 C191.73313544 211.45706907 192.06658182 213.80937657 192.08622742 218.00567627 C192.10503464 219.70516922 192.10503464 219.70516922 192.1242218 221.43899536 C192.12206917 223.29692215 192.12206917 223.29692215 192.11987305 225.19238281 C192.1300647 226.49994537 192.14025635 227.80750793 192.15075684 229.1546936 C192.17834265 232.73700921 192.18761342 236.31916607 192.19361091 239.90157413 C192.20299052 243.64658465 192.22919355 247.3914764 192.25361633 251.13641357 C192.29729646 258.22653348 192.32583408 265.31663035 192.34893972 272.4068439 C192.37598331 280.47940271 192.41989531 288.55184214 192.46522844 296.62431574 C192.55809644 313.22866255 192.6275404 329.83299679 192.6875 346.4375 C205.8875 346.4375 219.0875 346.4375 232.6875 346.4375 C232.73648437 340.93707031 232.78546875 335.43664062 232.8359375 329.76953125 C232.87132646 326.28318482 232.90728795 322.79686313 232.9453125 319.31054688 C233.00560087 313.77794959 233.06377818 308.2453869 233.109375 302.71264648 C233.14627227 298.25161395 233.19264436 293.79077098 233.24556351 289.32990074 C233.26408384 287.62871313 233.27920052 285.92748492 233.29084396 284.22623634 C233.30774689 281.84178924 233.33679136 279.45777403 233.36865234 277.07348633 C233.37189262 276.0204406 233.37189262 276.0204406 233.37519836 274.94612122 C233.44219301 271.01673539 233.97018713 267.98182735 235.6875 264.4375 C241.96575553 263.10940748 241.96575553 263.10940748 244.88775635 264.43769836 C247.54618821 267.39163927 247.25921091 270.33863214 247.23339844 274.12182617 C247.24373611 274.9025499 247.25407379 275.68327362 247.26472473 276.48765564 C247.29422798 279.068802 247.29565344 281.64916679 247.296875 284.23046875 C247.31185163 286.01981611 247.32857768 287.80914961 247.34698486 289.59846497 C247.39072894 294.30846785 247.41067302 299.01828425 247.42572021 303.72845459 C247.4487023 309.37954573 247.5011399 315.0304305 247.54866028 320.68135834 C247.61754975 329.2667929 247.64893784 337.85163427 247.6875 346.4375 C261.2175 346.4375 274.7475 346.4375 288.6875 346.4375 C288.70151855 340.60723145 288.70151855 340.60723145 288.71582031 334.65917969 C288.74954727 321.83475742 288.80487028 309.01050522 288.87140274 296.18621445 C288.9112222 288.40880738 288.94359984 280.63150193 288.95849609 272.85400391 C288.97149764 266.07558799 288.99842366 259.29739537 289.04211307 252.5191052 C289.06476198 248.9295689 289.08040866 245.34030837 289.07938385 241.75069427 C289.07850093 237.74461208 289.10870328 233.73934562 289.14160156 229.73339844 C289.1365712 228.54153427 289.13154083 227.3496701 289.12635803 226.12168884 C289.14027084 225.03076431 289.15418365 223.93983978 289.16851807 222.81585693 C289.17220524 221.86825375 289.17589241 220.92065056 289.17969131 219.94433212 C289.83664974 216.70121217 291.17691225 215.51992229 293.6875 213.4375 C295.52416992 212.42358398 295.52416992 212.42358398 297.41796875 211.68359375 C298.13009521 211.39234619 298.84222168 211.10109863 299.57592773 210.80102539 C300.33462158 210.49543701 301.09331543 210.18984863 301.875 209.875 C315.92324195 203.9139699 328.22248642 195.47615756 339.6875 185.4375 C340.53699219 184.72078125 341.38648438 184.0040625 342.26171875 183.265625 C348.50191326 177.87593174 353.69436356 171.98924164 358.6875 165.4375 C359.30496094 164.63570312 359.92242187 163.83390625 360.55859375 163.0078125 C375.29603035 142.98590532 379.98238907 120.89901307 376.43359375 96.61328125 C373.55694276 79.30092586 365.7095279 63.00972259 354.6875 49.4375 C354.05070312 48.64859375 353.41390625 47.8596875 352.7578125 47.046875 C338.18895148 29.84508729 317.62108805 19.46918834 295.6875 15.4375 C294.98496094 15.30601563 294.28242188 15.17453125 293.55859375 15.0390625 C270.51743632 11.47946824 245.69499027 18.27260733 226.83886719 31.75976562 C223.99760974 33.9208942 221.23518399 36.14776334 218.4921875 38.43359375 C215.65284332 40.46226167 214.15993119 41.3986709 210.6875 41.4375 C206.83320846 39.61050511 203.69533752 36.90345219 200.375 34.25 C184.60691137 22.38050856 166.26702016 16.07291236 146.6875 14.4375 C145.86507812 14.3653125 145.04265625 14.293125 144.1953125 14.21875 C120.29998583 13.2265565 95.69526715 22.70386211 78.1875 38.65234375 C75.16515757 40.81048514 73.40650189 41.44224362 69.6875 41.4375 C65.5450953 39.16157033 62.05012063 36.14461588 58.375 33.1875 C15.58300529 1.00070844 -44.97257864 13.21072588 -80.3125 50.4375 Z M-30.3125 360.4375 C-30.3125 380.2375 -30.3125 400.0375 -30.3125 420.4375 C74.9575 420.4375 180.2275 420.4375 288.6875 420.4375 C288.6875 400.6375 288.6875 380.8375 288.6875 360.4375 C183.4175 360.4375 78.1475 360.4375 -30.3125 360.4375 Z " fill="#000000" transform="translate(120.3125,38.5625)"/>
</svg>
