<?xml version="1.0" encoding="UTF-8"?>
<svg version="1.1" xmlns="http://www.w3.org/2000/svg" width="512" height="512">
<path d="M0 0 C1.16830575 -0.00872064 1.16830575 -0.00872064 2.36021364 -0.01761746 C4.98602885 -0.03228614 7.61091932 -0.0183006 10.23672867 -0.00457001 C12.1318924 -0.00917624 14.02705256 -0.01552728 15.92220521 -0.02347898 C21.14254344 -0.04023414 26.36259057 -0.03189782 31.58293009 -0.01953411 C37.20817099 -0.01051094 42.83336063 -0.0244399 48.45859146 -0.0354538 C59.48450459 -0.05327426 70.51030903 -0.04938293 81.53622648 -0.03780323 C90.49678963 -0.02878121 99.45732225 -0.02753958 108.41788864 -0.0318985 C110.32861028 -0.0328179 110.32861028 -0.0328179 112.27793236 -0.03375587 C114.86546038 -0.03503474 117.4529884 -0.03633159 120.04051641 -0.03764623 C143.63330392 -0.04873716 167.22601853 -0.03722036 190.81879379 -0.01627585 C212.35561852 0.00269816 233.89234863 0.00101651 255.42917252 -0.01811981 C279.61979295 -0.03954223 303.81034607 -0.04795504 328.00097871 -0.03567076 C330.58037837 -0.03439654 333.15977803 -0.03313905 335.7391777 -0.0318985 C337.64295532 -0.03097285 337.64295532 -0.03097285 339.58519308 -0.03002849 C348.53429523 -0.02657308 357.48336383 -0.03240826 366.43246078 -0.04181671 C377.33978679 -0.05303147 388.24699764 -0.05000792 399.15431044 -0.02869374 C404.72082623 -0.01817506 410.28714999 -0.01407546 415.8536644 -0.02729034 C420.94888908 -0.03920343 426.04374358 -0.03266926 431.13893464 -0.01138014 C432.98281767 -0.00690941 434.82673193 -0.00919088 436.6705949 -0.01888329 C439.1771627 -0.03104911 441.68246307 -0.01857079 444.18896484 0 C444.90480425 -0.00936466 445.62064365 -0.01872933 446.35817516 -0.02837777 C452.59535606 0.06397362 457.68383841 2.20595172 462.3696022 6.24945831 C462.81561783 6.80762238 463.26163345 7.36578644 463.7211647 7.94086456 C464.41339127 8.77424347 464.41339127 8.77424347 465.1196022 9.62445831 C469.35297518 16.10933858 469.00906299 23.00751472 468.3461647 30.50336456 C466.68191076 37.09718084 461.9260243 41.82979152 456.3461647 45.50336456 C444.77656485 49.96161688 430.79385436 47.1299811 418.70798111 46.01410675 C415.85276103 45.75396556 412.99624885 45.51509931 410.13913345 45.27680206 C382.05588723 42.79918704 382.05588723 42.79918704 372.3461647 32.50336456 C368.33128309 27.1473597 366.46070152 23.19058546 365.3461647 16.50336456 C357.0961647 16.50336456 348.8461647 16.50336456 340.3461647 16.50336456 C340.39257095 18.89070831 340.4389772 21.27805206 340.4867897 23.73773956 C340.51812692 26.09107088 340.5423335 28.44437755 340.56589127 30.79779816 C340.58581003 32.41346666 340.61295544 34.02906497 340.64792252 35.64447784 C340.99359708 52.04368601 337.67710946 67.31145971 326.1586647 79.81977081 C314.22187364 90.90760906 300.81178066 96.82134415 284.6385994 96.7707901 C283.57119449 96.77532121 282.50378959 96.77985233 281.40403908 96.78452075 C277.83302698 96.79716477 274.2621674 96.79554434 270.69113541 96.79389191 C268.12832315 96.79987719 265.5655127 96.80668274 263.00270462 96.81424713 C256.76651813 96.83008066 250.53038734 96.8363556 244.29418264 96.83747189 C239.22198313 96.83842366 234.14979605 96.84254039 229.07760048 96.84887314 C214.68130672 96.86648003 200.28504273 96.87571304 185.88873813 96.87421219 C185.1132558 96.87413228 184.33777346 96.87405237 183.53879166 96.87397003 C182.76235682 96.87388827 181.98592199 96.87380651 181.18595883 96.87372227 C168.61059862 96.87290985 156.03535833 96.89203782 143.4600328 96.92024677 C130.53240285 96.94901595 117.6048313 96.9627848 104.67716855 96.96105921 C97.42549428 96.96039663 90.17394568 96.96583065 82.92230034 96.98741531 C76.09897548 97.0075956 69.27591952 97.00691223 62.45258141 96.99238205 C59.95331052 96.99029453 57.45402299 96.99499136 54.95478058 97.00710297 C51.53242781 97.02260905 48.11098238 97.01321086 44.68864822 96.99784088 C43.70894871 97.00812801 42.72924919 97.01841513 41.71986181 97.02901399 C28.56049224 96.89918003 14.75402523 91.27058505 5.02975845 82.31586456 C-6.09409782 70.34029772 -11.95292247 56.89504031 -11.9897728 40.67914581 C-11.9964296 39.65532303 -12.0030864 38.63150024 -12.00994492 37.57665253 C-12.02003058 35.42260273 -12.02476321 33.26852194 -12.02444077 31.11444855 C-12.02883533 27.81583598 -12.06525732 24.51853956 -12.10305405 21.22016144 C-12.10891872 19.12316079 -12.11289045 17.02615381 -12.1147728 14.92914581 C-12.12914383 13.94368271 -12.14351486 12.9582196 -12.15832138 11.94289398 C-12.14909149 10.56577492 -12.14909149 10.56577492 -12.13967514 9.16083527 C-12.14252518 8.3558812 -12.14537521 7.55092712 -12.14831161 6.72158051 C-10.7148813 0.29122608 -5.67029414 -0.07322132 0 0 Z M4.3461647 16.50336456 C3.34899825 45.86526734 3.34899825 45.86526734 17.1039772 69.46039581 C27.84629605 79.24825776 40.41571783 80.6609722 54.33877945 80.63707733 C55.31720062 80.63934289 56.2956218 80.64160844 57.3036921 80.64394265 C60.56753627 80.65025004 63.83133857 80.64945539 67.09518814 80.64862823 C69.44140044 80.65162177 71.78761224 80.65502474 74.13382339 80.65880585 C80.49759143 80.66763045 86.86134602 80.66998332 93.22511959 80.67062163 C97.87216872 80.6714525 102.51921487 80.67435354 107.16626294 80.67745811 C119.67099779 80.68575712 132.17572554 80.68950111 144.68046305 80.68878838 C145.74426759 80.68872844 145.74426759 80.68872844 146.82956314 80.6886673 C147.53963895 80.68862642 148.24971476 80.68858554 148.98130801 80.68854342 C160.4831238 80.68813716 171.98490682 80.69770308 183.48671314 80.71180566 C195.31599649 80.72619453 207.14526389 80.73307446 218.97455621 80.73221189 C225.60801809 80.73188078 232.24144978 80.7347866 238.87490463 80.74538994 C245.11625073 80.75509435 251.35752444 80.755134 257.59887314 80.74787331 C259.88367189 80.74683037 262.1684752 80.749173 264.45326614 80.75523376 C290.9857638 80.93931479 290.9857638 80.93931479 313.30319595 67.74555206 C326.63049199 53.11865355 324.3461647 35.63149161 324.3461647 16.50336456 C218.7461647 16.50336456 113.1461647 16.50336456 4.3461647 16.50336456 Z M383.3461647 16.50336456 C385.46638973 21.1100353 388.16034611 23.60831492 392.91110611 25.55365753 C397.28233279 26.76219142 401.54884742 27.18033595 406.0571022 27.57367706 C406.98406906 27.65963135 407.91103592 27.74558563 408.86609268 27.83414459 C410.82072921 28.01390184 412.77568709 28.19019462 414.73093033 28.36322784 C417.70505327 28.626936 420.67794261 28.90212693 423.6508522 29.17914581 C425.55704022 29.35300381 427.46328851 29.52620254 429.3696022 29.69867706 C430.2500621 29.77989807 431.130522 29.86111908 432.03766251 29.94480133 C441.32322939 31.25567809 441.32322939 31.25567809 449.8461647 28.87836456 C451.77820703 25.81929755 451.87596349 24.06058497 451.3461647 20.50336456 C449.49273695 17.9438691 448.40860077 17.52417658 445.3461647 16.50336456 C443.33711826 16.41436297 441.32519502 16.38576004 439.31418228 16.38983917 C437.45259224 16.38995247 437.45259224 16.38995247 435.55339432 16.39006805 C434.19916112 16.39517466 432.84492834 16.40039065 431.49069595 16.40570831 C430.10492885 16.40757373 428.71916109 16.40899705 427.3333931 16.40999603 C423.6886856 16.41381146 420.04401805 16.42363344 416.39932632 16.43470001 C412.67913732 16.44493507 408.95894186 16.44949814 405.23874283 16.45453644 C397.94119859 16.46525658 390.64368725 16.48232131 383.3461647 16.50336456 Z " fill="#000000" transform="translate(27.65383529663086,399.4966354370117)"/>
<path d="M0 0 C2.59198162 0.94478719 3.57407689 1.14247428 6.21875 0.2578125 C6.9715625 -0.11601562 7.724375 -0.48984375 8.5 -0.875 C17.86507186 -5.46131944 30.16811585 -5.72408228 40.0625 -2.375 C50.22124112 2.02046136 58.64278905 9.87308647 63.22265625 20.015625 C67.85212295 31.8335601 66.82210415 43.37634771 62 55 C59.54919275 59.66066436 57.12792608 63.1653347 52.875 66.3125 C49.14265223 69.80143378 48.42587748 73.08498312 47.01171875 77.90625 C45.57560152 82.29777451 43.37434251 86.06342836 41 90 C50.55505231 98.34294041 60.19787334 106.53246781 70.0859375 114.48046875 C71.08882812 115.29128906 72.09171875 116.10210937 73.125 116.9375 C74.03507813 117.66839844 74.94515625 118.39929688 75.8828125 119.15234375 C78.61809325 121.53940611 78.92269099 122.51681868 79.5 126.125 C78.97619962 130.18445293 78.67103721 130.78081911 76.06591797 133.61914062 C75.42748962 134.31837646 74.78906128 135.0176123 74.13128662 135.73803711 C73.42796204 136.48448486 72.72463745 137.23093262 72 138 C70.91480072 139.15350952 70.91480072 139.15350952 69.80767822 140.33032227 C65.07938492 145.30033459 60.27799573 150.19948319 55.46302986 155.08541107 C53.04160095 157.54277062 50.62996525 160.00829795 48.23876953 162.49511719 C45.4578572 165.38678395 42.64091299 168.24077655 39.8203125 171.09375 C38.97002472 171.98735229 38.11973694 172.88095459 37.24368286 173.80163574 C30.48816512 180.536101 30.48816512 180.536101 25.07177734 180.6965332 C21.68211373 180.43765349 20.90801556 179.93064857 18.03125 177.76171875 C17.1959375 176.74722656 16.360625 175.73273438 15.5 174.6875 C15.03916016 174.14279053 14.57832031 173.59808105 14.10351562 173.03686523 C12.70941957 171.37765057 11.35326048 169.6925825 10 168 C9.236875 167.07960938 8.47375 166.15921875 7.6875 165.2109375 C6.22772255 163.44356409 4.77847373 161.66744209 3.33984375 159.8828125 C0.62086752 156.53288853 -2.15061929 153.23096193 -4.9375 149.9375 C-5.41058594 149.37683838 -5.88367188 148.81617676 -6.37109375 148.23852539 C-8.19130657 146.08992025 -10.00785588 143.99214412 -12 142 C-13.60875 143.11375 -13.60875 143.11375 -15.25 144.25 C-18.77787985 146.49729713 -22.11121344 147.72391408 -26.125 148.875 C-31.16832766 150.43843158 -33.38963567 152.00350505 -36.45703125 156.1953125 C-42.25130833 162.97241633 -52.0854595 166.58360065 -60.734375 167.31640625 C-72.96007818 167.83086501 -83.54447311 165.06132821 -93 157 C-102.84880709 146.48810491 -105.47683213 136.65836267 -105.296875 122.58203125 C-105.06648503 116.86107215 -103.32669954 112.17667286 -101 107 C-99.91668789 104.26463692 -99.82757638 103.40637881 -100.99609375 100.65234375 C-101.47175781 99.75644531 -101.94742188 98.86054688 -102.4375 97.9375 C-106.84057342 87.86099865 -106.85710405 75.58681096 -102.9375 65.3125 C-99.97618433 59.29732755 -95.92402459 54.55444527 -90.8984375 50.1640625 C-88.54924941 47.48618143 -88.03025961 45.32076588 -87.1875 41.875 C-84.12397275 31.28327013 -78.32783744 23.86321211 -69 18 C-65.38850913 16.09273906 -61.70040346 14.57292873 -57.83203125 13.26953125 C-53.02292964 11.6364217 -50.52849649 9.79313372 -47 6 C-33.18431843 -6.35134665 -16.58955882 -6.57770724 0 0 Z M-37.9375 21.0625 C-39.93248233 23.81048779 -39.93248233 23.81048779 -41.203125 26.08984375 C-43.78522614 28.83472953 -46.13701494 28.9050333 -49.8125 29.5 C-58.5825899 31.19452919 -63.93607215 34.66340574 -69 42 C-70.67612637 45.51297718 -71.18783159 48.46056483 -71.5 52.3125 C-72.32103944 57.3194946 -73.86108031 59.25203337 -77.875 62.3125 C-78.76832031 62.9415625 -79.66164063 63.570625 -80.58203125 64.21875 C-84.55690431 67.14692789 -86.4378971 70.3136913 -88 75 C-88.65438072 82.84184108 -88.64782685 89.43651479 -84 96 C-83.2575 96.86625 -82.515 97.7325 -81.75 98.625 C-79.4718751 101.71674094 -79.61738133 103.21069221 -80 107 C-81.49609375 109.921875 -81.49609375 109.921875 -83.4375 112.75 C-84.07558594 113.69359375 -84.71367188 114.6371875 -85.37109375 115.609375 C-86.17740234 116.79273438 -86.17740234 116.79273438 -87 118 C-89.44005983 122.88011966 -88.7127508 130.22163382 -87.38671875 135.390625 C-84.55181561 141.73481353 -79.26803253 146.36598373 -73.125 149.4375 C-65.81757028 150.75283735 -59.60646051 150.73950595 -53 147 C-49.247487 144.30486884 -46.4924331 142.00456353 -44.4375 137.8125 C-40.83460797 133.65531689 -36.75518611 133.71230576 -31.484375 132.75 C-24.44406047 131.23459598 -20.53337162 128.27347905 -16.5625 122.3125 C-13.41321258 116.56014304 -12.64110359 111.14801426 -13.203125 104.65234375 C-13.57674965 99.7018172 -12.98250963 97.39631624 -9.6875 93.5625 C-7.53188403 91.32554004 -5.60532598 89.73688399 -3 88 C-0.43069321 87.95958394 2.06363537 88.00893495 4.625 88.125 C12.84905702 88.30484649 18.40590421 87.03501422 24.8125 81.625 C25.534375 80.75875 26.25625 79.8925 27 79 C27.721875 78.154375 28.44375 77.30875 29.1875 76.4375 C31.00500006 72.99051713 31.43321732 70.74763579 31.9375 66.9375 C32.69356397 61.65157001 33.61350787 59.3142385 38 56 C38.57492188 55.56945312 39.14984375 55.13890625 39.7421875 54.6953125 C45.21767866 50.34781952 48.29279184 45.72543631 49.34375 38.703125 C49.63097647 31.76181853 47.66667605 26.40742096 43.75 20.75 C38.61304678 15.61304678 33.04871928 12.90752632 25.75 12.75 C19.30310821 12.84511808 14.44899366 14.77073297 9.375 18.6875 C6.9811051 20.47884993 5.98783633 21.00223414 2.9375 21.5625 C-0.80004118 20.84680063 -2.96228858 19.26212553 -6 17 C-16.3694105 10.33395039 -29.63865471 11.29769102 -37.9375 21.0625 Z M20.0625 102.4375 C14.38967783 104.0282914 8.86898328 104.67079204 3 105 C3.04125 106.11375 3.0825 107.2275 3.125 108.375 C3.13534 114.19641944 1.98020763 119.95418411 0.19921875 125.48828125 C-0.25602506 128.11549872 -0.25602506 128.11549872 1.484375 130.4375 C2.23203125 131.283125 2.9796875 132.12875 3.75 133 C4.57628906 133.95390625 5.40257813 134.9078125 6.25390625 135.890625 C6.70008301 136.39400391 7.14625977 136.89738281 7.60595703 137.41601562 C9.52883528 139.60089025 11.3960657 141.83074252 13.26733398 144.05981445 C17.47663029 149.06943425 21.73223352 154.04016328 26 159 C33.11905227 153.19316781 39.47374812 146.63714556 45.9375 140.125 C47.10979204 138.94768362 48.28231614 137.77059826 49.45507812 136.59375 C52.30606982 133.73182511 55.15389615 130.86678543 58 128 C49.79818968 119.76590578 41.05684428 112.27608227 32 105 C31.10925781 104.25363281 30.21851563 103.50726563 29.30078125 102.73828125 C25.82345044 100.11109583 24.03631267 101.24592633 20.0625 102.4375 Z " fill="#000000" transform="translate(121,196)"/>
<path d="M0 0 C15.66626732 12.99091133 25.45725766 30.80919213 28.37890625 50.97265625 C30.22123679 73.55758161 25.79569545 93.4310061 12.37890625 111.97265625 C3.36451034 122.55000921 -6.69457932 132.26125203 -16.484375 142.109375 C-17.32838552 142.9587092 -18.17239605 143.8080434 -19.04198265 144.68311501 C-23.50291535 149.17058261 -27.96738705 153.65449815 -32.43432617 158.13598633 C-36.1021867 161.81721001 -39.76262713 165.50557777 -43.41674805 169.20043945 C-47.86618652 173.69944575 -52.32800906 178.18581714 -56.79875755 182.66364479 C-58.48570733 184.35725691 -60.16844175 186.05507989 -61.84661293 187.75739098 C-78.94085667 205.08360743 -94.60338865 217.32524245 -119.80859375 217.53515625 C-128.72501013 217.43276413 -136.40207867 216.63221771 -144.62109375 212.97265625 C-145.49378906 212.61042969 -146.36648437 212.24820313 -147.265625 211.875 C-162.69572585 204.88286521 -174.72196622 191.47373862 -180.81616211 175.78540039 C-186.4914902 159.61122479 -185.67022036 140.55211835 -178.62109375 124.97265625 C-172.93687548 113.90041967 -164.20654306 105.36152807 -155.1796875 96.99609375 C-153.15870985 95.09346038 -151.14108099 93.18734786 -149.12475586 91.27978516 C-147.74400864 89.98860785 -146.35025393 88.71120544 -144.9440918 87.44775391 C-136.08547249 79.96864691 -136.08547249 79.96864691 -131.74731445 69.69458008 C-131.61183327 65.73902393 -132.14740221 61.89741652 -132.62109375 57.97265625 C-131.33937682 38.96031738 -124.13145944 22.24975297 -111.62109375 7.97265625 C-111.028125 7.28429687 -110.43515625 6.5959375 -109.82421875 5.88671875 C-80.95943324 -25.32178866 -32.25446939 -24.94794279 0 0 Z M-101.87109375 22.59765625 C-112.98285741 37.38291878 -116.77102827 53.96570376 -114.77929688 72.1472168 C-114.66811523 73.34858276 -114.66811523 73.34858276 -114.5546875 74.57421875 C-114.47275146 75.27885254 -114.39081543 75.98348633 -114.30639648 76.70947266 C-115.29884971 83.84682056 -122.67905306 89.18493525 -127.55078125 93.88671875 C-129.33392462 95.63481373 -131.11645752 97.3835316 -132.8984375 99.1328125 C-135.69184309 101.8645016 -138.48951339 104.59129375 -141.29833984 107.30712891 C-144.02140695 109.94481536 -146.7246088 112.60163852 -149.42578125 115.26171875 C-150.67293411 116.45300888 -150.67293411 116.45300888 -151.94528198 117.66836548 C-160.88973445 126.5343468 -166.74475498 137.62687627 -167.00146484 150.37915039 C-166.96657644 165.19562012 -163.11544262 176.23422772 -152.87109375 187.16015625 C-142.55857166 197.00214501 -131.34185231 200.49731547 -117.375 200.39233398 C-101.28775323 199.87030417 -90.51979367 191.32643438 -79.53466797 180.32202148 C-78.68774384 179.48517319 -77.8408197 178.64832489 -76.9682312 177.78611755 C-74.67327057 175.51457277 -72.38508907 173.23649612 -70.10084677 170.95418048 C-68.66616738 169.52165053 -67.22936529 168.09128479 -65.7918129 166.66163826 C-60.75647412 161.65395372 -55.72883988 156.63868314 -50.70849609 151.6159668 C-46.06079571 146.96646629 -41.39663765 142.33394683 -36.72440708 137.70910877 C-32.68608553 133.71026768 -28.65967402 129.6996859 -24.64199841 125.68010288 C-22.2543297 123.29167668 -19.8612075 120.90953817 -17.4585228 118.53616142 C-0.78790555 102.04998468 11.55994383 86.99595928 11.87890625 62.47265625 C11.67859491 44.3153439 5.16269859 29.77775491 -7.62109375 16.97265625 C-8.33265625 16.24949219 -9.04421875 15.52632812 -9.77734375 14.78125 C-21.00547659 4.06163767 -36.26225734 -1.00255435 -51.62109375 -1.52734375 C-71.32248869 -0.85417536 -88.95800788 7.64827606 -101.87109375 22.59765625 Z " fill="#000000" transform="translate(391.62109375,167.02734375)"/>
<path d="M0 0 C2.39543532 0.01611279 4.7891846 0.00001457 7.18457031 -0.01904297 C21.26745835 -0.03926228 35.44099365 1.40277716 48.77050781 6.20361328 C49.88026978 6.59045288 49.88026978 6.59045288 51.01245117 6.98510742 C61.28396827 10.66347378 70.0363429 15.36363874 78.39550781 22.39111328 C79.61947266 23.31537109 79.61947266 23.31537109 80.86816406 24.25830078 C89.83612813 31.82631992 95.91890575 42.97772225 98.39550781 54.39111328 C99.75510013 71.10190937 98.01763202 85.8365008 87.39550781 99.39111328 C81.80898597 105.52351148 72.93438738 111.97251126 64.37426758 112.52050781 C63.24202759 112.52219971 63.24202759 112.52219971 62.08691406 112.52392578 C60.84264648 112.52585938 60.84264648 112.52585938 59.57324219 112.52783203 C58.27870117 112.52203125 58.27870117 112.52203125 56.95800781 112.51611328 C56.09884766 112.51998047 55.2396875 112.52384766 54.35449219 112.52783203 C53.52369141 112.52654297 52.69289062 112.52525391 51.83691406 112.52392578 C51.08095947 112.52279785 50.32500488 112.52166992 49.54614258 112.52050781 C47.38128927 112.39025781 45.47679529 111.98526112 43.39550781 111.39111328 C43.60755859 111.94984131 43.81960937 112.50856934 44.03808594 113.08422852 C45.00584984 115.66023523 45.95071023 118.24409943 46.89550781 120.82861328 C47.229375 121.70710938 47.56324219 122.58560547 47.90722656 123.49072266 C49.85310151 128.87166257 51.87638309 134.65975998 50.39550781 140.39111328 C48.8927002 142.48301697 48.8927002 142.48301697 46.39550781 144.39111328 C43.44765511 144.78567115 40.87373498 144.93843643 37.92675781 144.90869141 C36.6480481 144.91920532 36.6480481 144.91920532 35.34350586 144.92993164 C32.52717462 144.94752896 29.71184918 144.93588288 26.89550781 144.92236328 C24.93782356 144.9250577 22.98014061 144.9289397 21.02246094 144.93395996 C16.92011775 144.93985736 12.818123 144.93128421 8.71582031 144.91259766 C3.45630153 144.88980804 -1.80240082 144.90292981 -7.06188965 144.92688751 C-11.10422929 144.94133891 -15.14637524 144.93674251 -19.1887207 144.92637634 C-21.12801205 144.92370724 -23.06732096 144.92698526 -25.0065918 144.93629456 C-27.71678269 144.9464493 -30.42564994 144.93097456 -33.13574219 144.90869141 C-33.93794189 144.91678833 -34.7401416 144.92488525 -35.56665039 144.93322754 C-39.16793778 144.87834779 -41.19819258 144.70156544 -44.10168457 142.48301697 C-46.68541993 138.88646512 -46.20914125 135.64419504 -45.60449219 131.39111328 C-44.67055599 127.77414671 -43.43074394 124.31834522 -42.10449219 120.82861328 C-41.770625 119.9153125 -41.43675781 119.00201172 -41.09277344 118.06103516 C-40.27608605 115.8326453 -39.44660936 113.60998965 -38.60449219 111.39111328 C-39.17796387 111.55119873 -39.75143555 111.71128418 -40.34228516 111.8762207 C-51.78997848 114.48178785 -64.02859475 113.10045493 -73.91699219 106.95361328 C-83.80414099 100.0058871 -90.08855206 89.79188955 -93.18261719 78.23095703 C-95.80195369 60.59894186 -93.05691232 45.90451783 -82.60449219 31.39111328 C-82.15460938 30.75560547 -81.70472656 30.12009766 -81.24121094 29.46533203 C-66.91716163 11.08491478 -41.05105033 3.75462506 -19.08175659 0.67776489 C-12.74052729 -0.05599756 -6.37565682 -0.05072432 0 0 Z M-64.11621094 36.71142578 C-73.38476243 46.48553463 -77.13059891 56.00100097 -76.87792969 69.30126953 C-76.45167826 78.50365807 -72.1724763 85.15440907 -65.60449219 91.39111328 C-59.33372785 96.51625721 -52.41187351 96.1334818 -44.60449219 95.39111328 C-37.3768047 93.09917554 -32.43828153 89.00663762 -27.79199219 83.07861328 C-24.34463152 80.41922076 -21.89024222 80.91491883 -17.60449219 81.39111328 C-14.74267138 83.56399234 -14.62115251 84.27730859 -14.07324219 88.02001953 C-14.33549439 95.72680012 -17.56423625 103.12553856 -20.10449219 110.32861328 C-20.89256573 112.60027494 -21.67677073 114.87321446 -22.45837402 117.14710999 C-22.9434565 118.55432736 -23.43296987 119.96002687 -23.92736816 121.36399841 C-25.1823169 124.79565501 -25.1823169 124.79565501 -25.60449219 128.39111328 C-7.12449219 128.39111328 11.35550781 128.39111328 30.39550781 128.39111328 C28.08722544 119.78132541 28.08722544 119.78132541 25.35253906 111.38330078 C24.82563477 109.87316406 24.82563477 109.87316406 24.28808594 108.33251953 C23.56428691 106.27761089 22.83242299 104.22552625 22.09277344 102.17626953 C19.95414022 95.99446888 18.68846784 90.94258459 19.39550781 84.39111328 C20.67993164 82.67578125 20.67993164 82.67578125 22.39550781 81.39111328 C25.48348183 80.99266502 27.43775313 80.7693456 30.39550781 81.39111328 C33.08300781 83.57861328 33.08300781 83.57861328 35.39550781 86.39111328 C40.37825412 92.06590768 45.33911438 94.98183592 52.87988281 95.74267578 C60.24608213 95.91362133 65.39725459 95.51227933 71.37207031 90.84814453 C78.78913694 83.44865389 81.61077327 76.18236365 81.70800781 65.76611328 C81.70800781 53.88259778 77.56159493 46.02423831 69.39550781 37.39111328 C38.71399867 7.91588569 -32.76876616 7.75282205 -64.11621094 36.71142578 Z " fill="#000000" transform="translate(141.6044921875,15.60888671875)"/>
<path d="M0 0 C0.02684679 2.64590014 0.04676357 5.29153096 0.0625 7.9375 C0.07087891 8.69224609 0.07925781 9.44699219 0.08789062 10.22460938 C0.09652441 12.14994313 0.05224333 14.07535581 0 16 C-1.88055604 17.88055604 -5.22629563 17.49247915 -7.75 17.75 C-24.32800623 19.78717812 -38.32292472 27.71360846 -49.0703125 40.46875 C-58.49137738 52.82674604 -61.44473399 64.83615639 -63 80 C-68.61 80 -74.22 80 -80 80 C-80.8937562 60.11392457 -73.99023194 42.00062498 -61 27 C-60.40316406 26.20722656 -59.80632812 25.41445313 -59.19140625 24.59765625 C-45.0463514 7.83034525 -21.55604317 -1.30862994 0 0 Z " fill="#000000" transform="translate(368,16)"/>
<path d="M0 0 C6.14949253 4.00912145 10.17440908 8.83455564 12 16 C13.01368456 23.30697622 12.21515957 29.84024682 8 36 C2.89380358 41.61972281 -1.79661331 45.49513306 -9.49609375 46.2421875 C-17.11287074 46.60136977 -23.22923041 45.38195482 -29.0078125 40.19921875 C-34.94754785 33.79971309 -37.68772792 27.62949671 -37.41015625 18.84375 C-36.3724756 11.64916419 -32.70268415 5.59575544 -26.953125 1.18359375 C-18.30255953 -4.05864892 -9.07477434 -4.38146321 0 0 Z M-20 19 C-20.06625411 22.8427383 -19.81899419 24.99200716 -17.375 28 C-13.88418213 29.46981805 -11.60851044 28.98413921 -8 28 C-5.83333333 26.5 -5.83333333 26.5 -5 24 C-5.06648397 20.21041394 -5.16774598 17.92142409 -7.75 15.0625 C-13.37504109 12.4062306 -16.43010499 14.06514514 -20 19 Z " fill="#000000" transform="translate(358,191)"/>
<path d="M0 0 C0 5.61 0 11.22 0 17 C-1.77375 17.226875 -3.5475 17.45375 -5.375 17.6875 C-16.08469549 19.50184841 -25.31159494 24.53000102 -31.7578125 33.42578125 C-36.4493561 40.89372142 -37.89673366 47.17386931 -39 56 C-44.61 56 -50.22 56 -56 56 C-56.94480424 42.20585811 -52.68216709 30.68275593 -44 20 C-43.37351563 19.16726562 -42.74703125 18.33453125 -42.1015625 17.4765625 C-31.59834986 5.09917066 -15.71321075 -0.38798051 0 0 Z " fill="#000000" transform="translate(264,152)"/>
<path d="M0 0 C13.69815875 -0.80577404 23.63787012 3.95120662 33.96484375 12.65625 C41.8448571 19.96724707 47.50755872 30.01150814 48.17578125 40.8515625 C48.18585243 43.23507403 48.10205772 45.61865314 48 48 C42.39 48 36.78 48 31 48 C30.79375 46.39125 30.5875 44.7825 30.375 43.125 C28.89631021 35.14623633 25.52160293 28.67474565 19.125 23.5625 C12.91078404 19.37234295 7.43447496 18.06206785 0 17 C0 11.39 0 5.78 0 0 Z " fill="#000000" transform="translate(24,136)"/>
<path d="M0 0 C5.28 0 10.56 0 16 0 C16 5.28 16 10.56 16 16 C10.72 16 5.44 16 0 16 C0 10.72 0 5.44 0 0 Z " fill="#000000" transform="translate(336,368)"/>
<path d="M0 0 C5.28 0 10.56 0 16 0 C16 5.28 16 10.56 16 16 C10.72 16 5.44 16 0 16 C0 10.72 0 5.44 0 0 Z " fill="#000000" transform="translate(384,16)"/>
</svg>
