<?xml version="1.0" encoding="UTF-8"?>
<svg version="1.1" xmlns="http://www.w3.org/2000/svg" width="512" height="512">
<path d="M0 0 C9.01865728 6.71754188 15.42765692 15.91688048 18.46484375 26.8359375 C18.46484375 28.1559375 18.46484375 29.4759375 18.46484375 30.8359375 C19.6971875 30.76632813 20.92953125 30.69671875 22.19921875 30.625 C33.50963439 30.17761785 42.54775025 30.65205591 51.41796875 38.58203125 C54.55420971 41.99992492 56.40997551 45.68468853 58.46484375 49.8359375 C59.42791443 49.83514191 60.39098511 49.83434631 61.38323975 49.83352661 C70.50376003 49.82990862 79.62371975 49.85795579 88.74406052 49.9162159 C93.43188372 49.94516508 98.11921087 49.96334219 102.80712891 49.95605469 C107.33979157 49.94941898 111.87147768 49.972185 116.40393829 50.01449203 C118.12445851 50.02554834 119.84507866 50.02639164 121.56560516 50.01636124 C132.89280567 49.9588435 142.31020642 50.75715884 151.37518311 58.45901489 C157.90358361 65.39711671 160.06946631 73.42758681 159.94586182 82.72584534 C159.94927952 83.68091931 159.95269722 84.63599328 159.95621848 85.62000889 C159.96277131 88.79849827 159.94086399 91.97613032 159.91894531 95.15454102 C159.91781628 97.44155355 159.91845179 99.72856753 159.92071533 102.01557922 C159.9218612 108.20919132 159.89837207 114.40249244 159.8704195 120.59603238 C159.84538486 127.0742543 159.84306221 133.55248364 159.83831787 140.03074646 C159.82730501 150.89921602 159.80233401 161.76757099 159.76660156 172.63598633 C159.72984672 183.8270613 159.70155201 195.01810532 159.68457031 206.20922852 C159.68351942 206.89984698 159.68246852 207.59046544 159.68138579 208.30201174 C159.67616537 211.76688036 159.6711106 215.23174921 159.66613817 218.6966182 C159.62471785 247.40980145 159.55400724 276.12286502 159.46484375 304.8359375 C160.37370834 304.92334953 160.37370834 304.92334953 161.30093384 305.01252747 C162.10219696 305.09451889 162.90346008 305.17651031 163.72900391 305.26098633 C164.52053864 305.33988602 165.31207336 305.41878571 166.12759399 305.50007629 C186.97996284 308.49654757 207.43255582 325.43468978 219.96484375 341.3984375 C237.22478954 365.08622517 243.08030318 393.05940887 238.8125 422.09765625 C234.10876931 447.5737294 218.47062929 470.86305502 197.46484375 485.8359375 C179.46819627 497.91071198 160.42838271 503.14788953 138.85951233 503.11682129 C137.40663813 503.12199941 135.95376677 503.12802871 134.50089926 503.13482809 C130.53555083 503.15084628 126.57027504 503.15454034 122.6048981 503.15602303 C118.31782218 503.15974529 114.03078304 503.1748499 109.74372864 503.18829346 C100.38437379 503.21536914 91.02503618 503.22749382 81.6656487 503.23631477 C75.81722545 503.24185216 69.96880875 503.25032883 64.12038994 503.25932312 C47.91287814 503.28369108 31.70537155 503.30429669 15.49784184 503.3110733 C14.46214775 503.31151244 13.42645366 503.31195157 12.35937491 503.31240401 C10.80224429 503.31305884 10.80224429 503.31305884 9.21365649 503.3137269 C7.11029247 503.31461382 5.00692846 503.31550694 2.90356445 503.31640625 C1.33857222 503.31707054 1.33857222 503.31707054 -0.25803602 503.31774825 C-17.17220919 503.32564826 -34.08621025 503.36057633 -51.00031691 503.40712529 C-68.38484072 503.45458133 -85.76927816 503.47947813 -103.15386778 503.48180914 C-112.90722361 503.48364045 -122.66035478 503.49509054 -132.41364861 503.53144836 C-140.7156988 503.56228892 -149.01745479 503.57246841 -157.3195514 503.55597216 C-161.55211821 503.54817393 -165.78409287 503.54994409 -170.0165863 503.57808685 C-173.89745714 503.60365512 -177.77729365 503.60109428 -181.65816397 503.57690543 C-183.05576138 503.57300683 -184.4534332 503.57907756 -185.85092627 503.59659415 C-196.02454363 503.71595673 -204.50075761 501.92507071 -212.46003002 495.21258783 C-214.05220432 493.50515531 -215.30145311 491.81578692 -216.53515625 489.8359375 C-216.89842368 489.25873359 -217.26169112 488.68152967 -217.63596666 488.08683473 C-221.58499958 480.55559943 -221.09868659 472.61706288 -221.05654907 464.34513855 C-221.06259517 462.66299793 -221.07037568 460.9808628 -221.07973421 459.29873735 C-221.10027279 454.69030141 -221.09593624 450.08217703 -221.08737302 445.47371566 C-221.08243459 440.4981037 -221.10047175 435.52256636 -221.115448 430.54698181 C-221.14093564 420.80447242 -221.14453016 411.06207329 -221.13984747 401.31953617 C-221.13627999 393.39936023 -221.13978284 385.47921773 -221.14829636 377.55904579 C-221.14948673 376.43138249 -221.15067711 375.30371919 -221.15190356 374.14188427 C-221.15432709 371.85095085 -221.15675536 369.56001743 -221.15918832 367.26908401 C-221.18093711 345.7884462 -221.17661547 324.30787119 -221.16441862 302.82722984 C-221.15408142 283.18405568 -221.17658845 263.54107992 -221.21461506 243.89794501 C-221.25337685 223.72008193 -221.26988293 203.54231269 -221.26236856 183.36441213 C-221.2585451 172.03939079 -221.2635139 160.71453829 -221.29179764 149.38954735 C-221.31563373 139.74796205 -221.31842585 130.10664951 -221.2942173 120.46506044 C-221.28244531 115.54801193 -221.28022431 110.63146221 -221.30422211 105.71444702 C-221.32595967 101.20807932 -221.31971192 96.70262623 -221.29169874 92.19630114 C-221.28641005 90.57119959 -221.29112191 88.94602614 -221.30717047 87.32099523 C-221.405836 76.57995428 -220.18286718 67.29408226 -212.79546797 58.84660786 C-211.14083047 57.25734464 -209.47864084 56.05175993 -207.53515625 54.8359375 C-206.6947303 54.28644943 -206.6947303 54.28644943 -205.83732605 53.7258606 C-198.64986376 49.85132212 -191.05694222 50.38484973 -183.1364994 50.53347397 C-180.54199577 50.57889426 -177.9489277 50.59373503 -175.35404968 50.59988403 C-167.98397622 50.62069183 -160.6150278 50.67970424 -153.24584961 50.79785156 C-148.72221599 50.8682314 -144.20049204 50.88994141 -139.67635155 50.88113785 C-137.95903945 50.88742734 -136.24168854 50.91223318 -134.52492714 50.95617294 C-129.36606758 51.08554604 -124.55821696 51.10643061 -119.53515625 49.8359375 C-117.04886544 47.46046308 -115.89053935 45.49844649 -114.61515808 42.322052 C-112.19900637 36.76018197 -105.96724062 33.6714842 -100.57543945 31.42700195 C-96.64147727 30.28734389 -92.65751553 30.52803103 -88.59765625 30.6484375 C-87.28571289 30.66874023 -87.28571289 30.66874023 -85.94726562 30.68945312 C-83.80962539 30.72449641 -81.67230641 30.77829209 -79.53515625 30.8359375 C-79.365 29.28326172 -79.365 29.28326172 -79.19140625 27.69921875 C-77.25757656 16.31494756 -69.86742021 6.7895554 -60.93359375 -0.19921875 C-41.9857494 -13.05863473 -18.86036568 -12.82613104 0 0 Z M-54.53515625 22.8359375 C-58.8473159 28.5679546 -59.6845728 35.65140285 -60.921875 42.54296875 C-61.53515625 45.8359375 -61.53515625 45.8359375 -62.53515625 48.8359375 C-65.6093117 49.86065598 -67.82787789 49.98952984 -71.05078125 50.046875 C-72.13746094 50.07523438 -73.22414062 50.10359375 -74.34375 50.1328125 C-76.62223881 50.18453756 -78.90090735 50.22891278 -81.1796875 50.265625 C-87.32394522 50.43972439 -92.17374116 50.69917597 -97.53515625 53.8359375 C-101.32864816 59.83210213 -100.53515625 63.16918961 -100.53515625 70.8359375 C-54.33515625 70.8359375 -8.13515625 70.8359375 39.46484375 70.8359375 C39.8615897 61.50064587 39.8615897 61.50064587 36.46484375 53.8359375 C30.16731077 50.15148874 23.87131861 50.32623169 16.71484375 50.2109375 C14.46996442 50.15997543 12.2251622 50.10545537 9.98046875 50.046875 C8.99336914 50.02931152 8.00626953 50.01174805 6.98925781 49.99365234 C4.46484375 49.8359375 4.46484375 49.8359375 1.46484375 48.8359375 C0.70369302 45.98312059 0.11119177 43.23301598 -0.41015625 40.3359375 C-2.51640458 29.93818327 -5.38741064 21.94061966 -14.53515625 15.8359375 C-28.19126264 7.08621664 -44.16329858 11.42689406 -54.53515625 22.8359375 Z M-197.53515625 73.8359375 C-200.08246294 78.66831802 -200.91040844 82.27689018 -200.91267967 87.79972839 C-200.91703999 88.46755061 -200.92140032 89.13537283 -200.92589277 89.82343209 C-200.93681037 92.05331453 -200.92644388 94.28257361 -200.91610718 96.51245117 C-200.91956513 98.13042866 -200.92433062 99.7484038 -200.93028891 101.36637402 C-200.94280964 105.80652545 -200.93662363 110.24648338 -200.92733026 114.68663549 C-200.92054452 119.47743381 -200.93101864 124.26819878 -200.93927002 129.05899048 C-200.9526146 138.44181339 -200.94972637 147.82456433 -200.9410321 157.20739007 C-200.93425882 164.83255113 -200.93333729 172.45769202 -200.93660355 180.08285522 C-200.93706325 181.16782734 -200.93752294 182.25279946 -200.93799657 183.37064952 C-200.93895574 185.57470267 -200.93992838 187.77875581 -200.94091435 189.98280895 C-200.94947037 210.65351783 -200.93963078 231.3241868 -200.92351325 251.99488914 C-200.91010988 269.73391743 -200.91243791 287.47288683 -200.92626953 305.21191406 C-200.94232159 325.80831656 -200.94864637 346.40468408 -200.93943274 367.00109196 C-200.93847709 369.19706789 -200.93753397 371.39304383 -200.93660355 373.58901978 C-200.93614072 374.6695011 -200.93567789 375.74998243 -200.93520104 376.86320561 C-200.93261003 384.47980634 -200.93698455 392.09638489 -200.94404221 399.71298218 C-200.95245323 408.9942092 -200.9501854 418.2753601 -200.93419997 427.5565784 C-200.92631194 432.29261004 -200.92323477 437.02851472 -200.93314743 441.76454544 C-200.94208375 446.09964545 -200.937179 450.43450077 -200.92121477 454.76957858 C-200.91786247 456.3381217 -200.91957114 457.90668547 -200.92684214 459.47521532 C-200.93596991 461.60781934 -200.92660351 463.73958614 -200.91267967 465.87214661 C-200.91219262 467.05649701 -200.91170556 468.24084742 -200.91120374 469.46108723 C-200.45409102 473.56345996 -199.44618651 476.17839306 -197.53515625 479.8359375 C-191.8213626 483.48437515 -186.14481862 483.25333276 -179.51905823 483.19670105 C-177.86849872 483.20054596 -177.86849872 483.20054596 -176.18459457 483.20446855 C-172.50255201 483.20940449 -168.82092072 483.19291606 -165.13891602 483.17651367 C-162.49751361 483.17566736 -159.85613628 483.17601057 -157.21473694 483.17784119 C-151.53062761 483.17941205 -145.84662182 483.17002251 -140.16253853 483.15312767 C-131.94438856 483.12871674 -123.72628852 483.12093026 -115.50810622 483.1171637 C-102.17375144 483.11060249 -88.8394518 483.09065032 -75.50512695 483.06225586 C-62.5542834 483.03470672 -49.60345484 483.01347732 -36.65258789 483.00073242 C-35.85391214 482.99994425 -35.05523639 482.99915608 -34.23235834 482.99834403 C-30.22552178 482.99442883 -26.21868512 482.99063773 -22.21184838 482.98690832 C11.01375581 482.95582272 44.23929239 482.90299595 77.46484375 482.8359375 C73.9829944 479.33332658 73.9829944 479.33332658 70.39453125 475.94140625 C57.20480864 463.62932678 47.91133085 447.44514277 43.36889648 430.07446289 C43.18504143 429.3779084 43.00118637 428.68135391 42.81175995 427.96369171 C42.36100135 426.25491058 41.91267867 424.5454872 41.46484375 422.8359375 C40.65847316 422.83170556 39.85210257 422.82747362 39.0212965 422.82311344 C19.4173329 422.71989228 -0.18659389 422.61126738 -19.79049397 422.49659824 C-29.2707171 422.44127642 -38.75094399 422.38779611 -48.23120117 422.33862305 C-56.49239646 422.29576849 -64.75356415 422.24948725 -73.0147168 422.19905895 C-77.39053778 422.17246829 -81.76635331 422.14761543 -86.14220619 422.12686348 C-90.25843944 422.10728866 -94.37462021 422.08314231 -98.49080658 422.05544662 C-100.00372808 422.04608068 -101.5166611 422.03840375 -103.02960014 422.03251839 C-105.09114635 422.02424945 -107.15256547 422.00997061 -109.21406555 421.99415588 C-110.36907216 421.98770333 -111.52407877 421.98125078 -112.71408558 421.9746027 C-115.53515625 421.8359375 -115.53515625 421.8359375 -118.53515625 420.8359375 C-119.51791213 417.88766987 -119.6693035 415.90941246 -119.66015625 412.8359375 C-119.66402344 411.5365625 -119.66402344 411.5365625 -119.66796875 410.2109375 C-119.53515625 407.8359375 -119.53515625 407.8359375 -118.53515625 404.8359375 C-115.23289185 403.7351827 -112.76864568 403.6974043 -109.28999329 403.67771912 C-107.98167542 403.6679303 -106.67335754 403.65814148 -105.32539368 403.64805603 C-103.8722843 403.6421518 -102.41917454 403.63634136 -100.96606445 403.63061523 C-99.43854507 403.62103683 -97.91102834 403.61102677 -96.3835144 403.60061646 C-92.23301493 403.57355721 -88.08250408 403.55255316 -83.93196511 403.53261447 C-79.5957508 403.51076122 -75.25957161 403.48336929 -70.92338562 403.45655823 C-62.71054192 403.4066224 -54.49767874 403.36168687 -46.28479689 403.31853586 C-36.93542617 403.2691711 -27.5860907 403.21425014 -18.23675406 403.15885627 C0.99707916 403.04502257 20.23094563 402.93818654 39.46484375 402.8359375 C39.51462875 402.27426376 39.56441376 401.71259003 39.6157074 401.13389587 C39.84916418 398.54304636 40.09249438 395.95321076 40.3359375 393.36328125 C40.41404663 392.48007202 40.49215576 391.59686279 40.57263184 390.68688965 C41.22793388 383.82595625 42.60365822 377.51805466 44.5625 370.90234375 C45.35279105 368.21672266 45.9372172 365.58151207 46.46484375 362.8359375 C45.6327045 362.83170556 44.80056524 362.82747362 43.94320965 362.82311344 C23.71335709 362.71989508 3.48353989 362.61127061 -16.74625111 362.49659824 C-26.52914542 362.44127494 -36.31204338 362.38779439 -46.0949707 362.33862305 C-54.61985384 362.29577029 -63.14471022 362.24948951 -71.66955203 362.19905895 C-76.18510166 362.17246683 -80.70064601 362.14761395 -85.21622658 362.12686348 C-89.46378295 362.10729057 -93.71128844 362.08314478 -97.95879936 362.05544662 C-99.52009788 362.04607967 -101.08140756 362.0384031 -102.64272308 362.03251839 C-104.76995347 362.02425118 -106.89706055 362.0099728 -109.02424622 361.99415588 C-110.21612454 361.98770333 -111.40800287 361.98125078 -112.63599873 361.9746027 C-115.53515625 361.8359375 -115.53515625 361.8359375 -118.53515625 360.8359375 C-119.51791213 357.88766987 -119.6693035 355.90941246 -119.66015625 352.8359375 C-119.66402344 351.5365625 -119.66402344 351.5365625 -119.66796875 350.2109375 C-119.53515625 347.8359375 -119.53515625 347.8359375 -118.53515625 344.8359375 C-115.02115067 343.66460231 -112.29440868 343.72602873 -108.58454895 343.74501038 C-107.87300854 343.74712806 -107.16146813 343.74924574 -106.42836589 343.75142759 C-104.03789601 343.7595019 -101.64751724 343.77453835 -99.25708008 343.78930664 C-97.54550385 343.79609551 -95.83392525 343.80230714 -94.12234497 343.8079834 C-90.43262109 343.82044699 -86.74291343 343.83504098 -83.05320168 343.85066414 C-77.21609816 343.87336872 -71.37905919 343.87906095 -65.54191589 343.87998962 C-64.55693817 343.88017139 -63.57196046 343.88035316 -62.55713493 343.88054043 C-58.49297337 343.88099036 -54.42881194 343.88090802 -50.36465037 343.880705 C-38.8235116 343.88096974 -27.2829152 343.89770715 -15.74194336 343.96264648 C-6.57664195 344.01410307 2.58795733 344.03027981 11.75337964 344.00518507 C16.60328965 343.99324501 21.45170126 343.99915462 26.30141258 344.04786873 C30.86658799 344.09333708 35.4293796 344.09196135 39.99460983 344.05512238 C41.66673579 344.04986444 43.339018 344.06160567 45.01087761 344.09190941 C54.18669599 344.45140785 54.18669599 344.45140785 62.19689369 340.62116814 C64.21440522 338.11517243 65.85019862 335.61208674 67.46484375 332.8359375 C80.47539861 319.02504882 98.19934456 309.66803046 116.58984375 305.4609375 C117.26885742 305.30520264 117.94787109 305.14946777 118.64746094 304.98901367 C123.33453958 304.02568116 127.988136 303.61420357 132.76123047 303.29052734 C134.01781464 303.20427094 135.2743988 303.11801453 136.56906128 303.02914429 C137.52466949 302.96538605 138.48027771 302.90162781 139.46484375 302.8359375 C139.53490771 274.01164529 139.58781916 245.18736583 139.62028027 216.36300564 C139.62335977 213.69927909 139.62646378 211.0355526 139.62963867 208.37182617 C139.6304256 207.70974587 139.63121253 207.04766556 139.63202331 206.36552221 C139.64426234 196.31454062 139.66532487 186.26360162 139.69116211 176.21264648 C139.72105265 164.5483883 139.74041597 152.88416843 139.74710923 141.21987301 C139.75102205 135.04304803 139.76022585 128.86633265 139.78203392 122.68954277 C139.80239349 116.87592492 139.80867855 111.06246184 139.80416679 105.24881172 C139.80499222 103.11510502 139.81096092 100.98139316 139.82246017 98.84771729 C139.83739579 95.93352075 139.83379325 93.0199078 139.8256073 90.10569763 C139.83434582 89.262297 139.84308435 88.41889637 139.85208768 87.54993814 C139.81188188 82.25087723 139.04438965 78.50509557 136.46484375 73.8359375 C131.70522071 71.01769506 127.71150945 70.46570242 122.24438477 70.49536133 C121.56061264 70.49492325 120.87684052 70.49448517 120.17234802 70.49403381 C117.93751333 70.49610511 115.70345179 70.51935562 113.46875 70.54296875 C111.90934153 70.54857065 110.34992774 70.55283794 108.79051208 70.55583191 C104.70514098 70.56723401 100.62009469 70.5966606 96.53485107 70.62994385 C92.35856519 70.66074526 88.18222634 70.67435868 84.00585938 70.68945312 C75.82537251 70.72153533 67.64514865 70.77267478 59.46484375 70.8359375 C59.40425781 71.88394531 59.34367187 72.93195313 59.28125 74.01171875 C59.19682637 75.39063798 59.11217928 76.76954355 59.02734375 78.1484375 C58.96836914 79.18387695 58.96836914 79.18387695 58.90820312 80.24023438 C58.7155696 83.30755285 58.44161658 85.90561902 57.46484375 88.8359375 C54.00228088 89.99012512 51.32469897 89.96181626 47.67041016 89.96292114 C46.97575968 89.96448113 46.2811092 89.96604112 45.56540871 89.96764839 C43.23238646 89.97164437 40.89942901 89.96847415 38.56640625 89.96533203 C36.89597536 89.96668669 35.22554477 89.96846699 33.55511475 89.97064209 C29.01390605 89.97520869 24.47272003 89.97343002 19.93151093 89.970263 C15.18432045 89.96773543 10.43713195 89.97007805 5.68994141 89.97164917 C-2.28288116 89.9734697 -10.25569447 89.9710676 -18.22851562 89.96630859 C-27.45288268 89.9608662 -36.67722764 89.96262894 -45.90159416 89.968135 C-53.8141645 89.97266944 -61.72672818 89.97331505 -69.63929939 89.97069633 C-74.36832161 89.96913539 -79.09733343 89.96893482 -83.82635498 89.97223282 C-88.27173652 89.97511632 -92.71708951 89.97312697 -97.16246796 89.96733856 C-98.796343 89.96601355 -100.43022044 89.96640072 -102.06409454 89.96860123 C-104.28966997 89.97132283 -106.51515315 89.96791915 -108.74072266 89.96292114 C-109.98769928 89.96254412 -111.2346759 89.96216709 -112.5194397 89.96177864 C-115.53515625 89.8359375 -115.53515625 89.8359375 -118.53515625 88.8359375 C-119.72211178 85.27507092 -119.88611043 81.86262726 -120.09765625 78.1484375 C-120.14083984 77.44654297 -120.18402344 76.74464844 -120.22851562 76.02148438 C-120.33432985 74.29318544 -120.43522206 72.5645864 -120.53515625 70.8359375 C-129.54108863 70.76628976 -138.54692764 70.71305147 -147.55307102 70.68050098 C-151.73542894 70.66487484 -155.91760198 70.64369273 -160.09985352 70.60961914 C-164.13934574 70.57691627 -168.17866063 70.55906155 -172.21827507 70.55130577 C-173.75598884 70.5457818 -175.2936934 70.53499489 -176.83133125 70.51874733 C-178.99266317 70.49682699 -181.15327128 70.49397654 -183.31469727 70.49536133 C-184.54269547 70.48869949 -185.77069366 70.48203766 -187.03590393 70.47517395 C-191.18331533 70.90276097 -193.93815878 71.70610267 -197.53515625 73.8359375 Z M81.46484375 347.8359375 C65.30491258 364.6532218 59.90375341 385.94409245 60.19140625 408.66015625 C60.83838498 429.68055925 71.2049089 448.35898628 86.27734375 462.6484375 C102.47227613 476.41791979 123.0928441 483.92276568 144.3984375 482.58984375 C166.916974 480.37820177 186.87832321 470.66228373 201.51806641 453.29370117 C216.17590528 434.87051982 220.14722923 413.93302677 218.46484375 390.8359375 C216.11166965 371.36342184 204.94302505 353.47339274 190.1484375 340.89453125 C156.25443419 314.89432784 111.75435674 318.53681731 81.46484375 347.8359375 Z " fill="#000000" transform="translate(246.53515625,9.1640625)"/>
<path d="M0 0 C0.85829029 -0.00779995 1.71658058 -0.01559991 2.60087967 -0.02363622 C5.47621869 -0.04357639 8.35023715 -0.02778388 11.22558594 -0.01205444 C13.28715793 -0.01882966 15.34872387 -0.02773225 17.41027832 -0.03860474 C23.00946363 -0.06141585 28.60818875 -0.05255404 34.2073822 -0.03670931 C40.06404877 -0.02405983 45.92067565 -0.03578778 51.77734375 -0.04364014 C61.61302777 -0.05273945 71.44852415 -0.04074129 81.28417969 -0.01693726 C92.65928307 0.01027441 104.03393839 0.00146046 115.40903091 -0.02606928 C125.17137617 -0.04875121 134.93358646 -0.05196487 144.69594955 -0.03887594 C150.52837215 -0.03107645 156.36058406 -0.03005369 162.19299316 -0.04655838 C167.67607115 -0.0609904 173.15857086 -0.05100412 178.6415863 -0.0220871 C180.6551772 -0.01546957 182.66881667 -0.01738529 184.68238831 -0.02840042 C187.4288922 -0.04204103 190.17353686 -0.02495854 192.91992188 0 C193.71904621 -0.01115361 194.51817055 -0.02230722 195.34151077 -0.03379881 C199.39521498 0.03778335 201.24034849 0.45998908 204.45220947 3.0183506 C206.63346304 5.86103185 207.14015351 7.10259384 207.08496094 10.63491821 C207.09785156 11.45991821 207.11074219 12.28491821 207.12402344 13.13491821 C206.1392303 16.84237471 204.44665585 18.25590948 201.45996094 20.63491821 C198.42406553 21.12712174 195.95147972 21.31214875 192.91992188 21.26983643 C192.06163158 21.27763638 191.20334129 21.28543633 190.31904221 21.29347265 C187.44370318 21.31341281 184.56968473 21.29762031 181.69433594 21.28189087 C179.63276395 21.28866609 177.57119801 21.29756867 175.50964355 21.30844116 C169.91045824 21.33125228 164.31173312 21.32239047 158.71253967 21.30654573 C152.85587311 21.29389625 146.99924622 21.30562421 141.14257812 21.31347656 C131.3068941 21.32257587 121.47139773 21.31057771 111.63574219 21.28677368 C100.2606388 21.25956202 88.88598349 21.26837597 77.51089096 21.29590571 C67.7485457 21.31858764 57.98633541 21.3218013 48.22397232 21.30871236 C42.39154973 21.30091287 36.55933781 21.29989011 30.72692871 21.31639481 C25.24385072 21.33082682 19.76135102 21.32084055 14.27833557 21.29192352 C12.26474468 21.28530599 10.25110521 21.28722171 8.23753357 21.29823685 C5.49102968 21.31187746 2.74638502 21.29479497 0 21.26983643 C-0.79912434 21.28099003 -1.59824867 21.29214364 -2.4215889 21.30363524 C-6.47529311 21.23205308 -8.32042661 20.80984734 -11.5322876 18.25148582 C-13.71354117 15.40880457 -14.22023163 14.16724259 -14.16503906 10.63491821 C-14.17792969 9.80991821 -14.19082031 8.98491821 -14.20410156 8.13491821 C-12.26218102 0.82415852 -6.66511733 -0.09302696 0 0 Z " fill="#000000" transform="translate(139.5400390625,291.3650817871094)"/>
<path d="M0 0 C0.85829029 -0.00779995 1.71658058 -0.01559991 2.60087967 -0.02363622 C5.47621869 -0.04357639 8.35023715 -0.02778388 11.22558594 -0.01205444 C13.28715793 -0.01882966 15.34872387 -0.02773225 17.41027832 -0.03860474 C23.00946363 -0.06141585 28.60818875 -0.05255404 34.2073822 -0.03670931 C40.06404877 -0.02405983 45.92067565 -0.03578778 51.77734375 -0.04364014 C61.61302777 -0.05273945 71.44852415 -0.04074129 81.28417969 -0.01693726 C92.65928307 0.01027441 104.03393839 0.00146046 115.40903091 -0.02606928 C125.17137617 -0.04875121 134.93358646 -0.05196487 144.69594955 -0.03887594 C150.52837215 -0.03107645 156.36058406 -0.03005369 162.19299316 -0.04655838 C167.67607115 -0.0609904 173.15857086 -0.05100412 178.6415863 -0.0220871 C180.6551772 -0.01546957 182.66881667 -0.01738529 184.68238831 -0.02840042 C187.4288922 -0.04204103 190.17353686 -0.02495854 192.91992188 0 C193.71904621 -0.01115361 194.51817055 -0.02230722 195.34151077 -0.03379881 C199.39521498 0.03778335 201.24034849 0.45998908 204.45220947 3.0183506 C206.63346304 5.86103185 207.14015351 7.10259384 207.08496094 10.63491821 C207.09785156 11.45991821 207.11074219 12.28491821 207.12402344 13.13491821 C206.1392303 16.84237471 204.44665585 18.25590948 201.45996094 20.63491821 C198.42406553 21.12712174 195.95147972 21.31214875 192.91992188 21.26983643 C192.06163158 21.27763638 191.20334129 21.28543633 190.31904221 21.29347265 C187.44370318 21.31341281 184.56968473 21.29762031 181.69433594 21.28189087 C179.63276395 21.28866609 177.57119801 21.29756867 175.50964355 21.30844116 C169.91045824 21.33125228 164.31173312 21.32239047 158.71253967 21.30654573 C152.85587311 21.29389625 146.99924622 21.30562421 141.14257812 21.31347656 C131.3068941 21.32257587 121.47139773 21.31057771 111.63574219 21.28677368 C100.2606388 21.25956202 88.88598349 21.26837597 77.51089096 21.29590571 C67.7485457 21.31858764 57.98633541 21.3218013 48.22397232 21.30871236 C42.39154973 21.30091287 36.55933781 21.29989011 30.72692871 21.31639481 C25.24385072 21.33082682 19.76135102 21.32084055 14.27833557 21.29192352 C12.26474468 21.28530599 10.25110521 21.28722171 8.23753357 21.29823685 C5.49102968 21.31187746 2.74638502 21.29479497 0 21.26983643 C-0.79912434 21.28099003 -1.59824867 21.29214364 -2.4215889 21.30363524 C-6.47529311 21.23205308 -8.32042661 20.80984734 -11.5322876 18.25148582 C-13.71354117 15.40880457 -14.22023163 14.16724259 -14.16503906 10.63491821 C-14.17792969 9.80991821 -14.19082031 8.98491821 -14.20410156 8.13491821 C-12.26218102 0.82415852 -6.66511733 -0.09302696 0 0 Z " fill="#000000" transform="translate(139.5400390625,231.36508178710938)"/>
<path d="M0 0 C0.85829029 -0.00779995 1.71658058 -0.01559991 2.60087967 -0.02363622 C5.47621869 -0.04357639 8.35023715 -0.02778388 11.22558594 -0.01205444 C13.28715793 -0.01882966 15.34872387 -0.02773225 17.41027832 -0.03860474 C23.00946363 -0.06141585 28.60818875 -0.05255404 34.2073822 -0.03670931 C40.06404877 -0.02405983 45.92067565 -0.03578778 51.77734375 -0.04364014 C61.61302777 -0.05273945 71.44852415 -0.04074129 81.28417969 -0.01693726 C92.65928307 0.01027441 104.03393839 0.00146046 115.40903091 -0.02606928 C125.17137617 -0.04875121 134.93358646 -0.05196487 144.69594955 -0.03887594 C150.52837215 -0.03107645 156.36058406 -0.03005369 162.19299316 -0.04655838 C167.67607115 -0.0609904 173.15857086 -0.05100412 178.6415863 -0.0220871 C180.6551772 -0.01546957 182.66881667 -0.01738529 184.68238831 -0.02840042 C187.4288922 -0.04204103 190.17353686 -0.02495854 192.91992188 0 C193.71904621 -0.01115361 194.51817055 -0.02230722 195.34151077 -0.03379881 C199.39521498 0.03778335 201.24034849 0.45998908 204.45220947 3.0183506 C206.63346304 5.86103185 207.14015351 7.10259384 207.08496094 10.63491821 C207.09785156 11.45991821 207.11074219 12.28491821 207.12402344 13.13491821 C206.1392303 16.84237471 204.44665585 18.25590948 201.45996094 20.63491821 C198.42406553 21.12712174 195.95147972 21.31214875 192.91992188 21.26983643 C192.06163158 21.27763638 191.20334129 21.28543633 190.31904221 21.29347265 C187.44370318 21.31341281 184.56968473 21.29762031 181.69433594 21.28189087 C179.63276395 21.28866609 177.57119801 21.29756867 175.50964355 21.30844116 C169.91045824 21.33125228 164.31173312 21.32239047 158.71253967 21.30654573 C152.85587311 21.29389625 146.99924622 21.30562421 141.14257812 21.31347656 C131.3068941 21.32257587 121.47139773 21.31057771 111.63574219 21.28677368 C100.2606388 21.25956202 88.88598349 21.26837597 77.51089096 21.29590571 C67.7485457 21.31858764 57.98633541 21.3218013 48.22397232 21.30871236 C42.39154973 21.30091287 36.55933781 21.29989011 30.72692871 21.31639481 C25.24385072 21.33082682 19.76135102 21.32084055 14.27833557 21.29192352 C12.26474468 21.28530599 10.25110521 21.28722171 8.23753357 21.29823685 C5.49102968 21.31187746 2.74638502 21.29479497 0 21.26983643 C-0.79912434 21.28099003 -1.59824867 21.29214364 -2.4215889 21.30363524 C-6.47529311 21.23205308 -8.32042661 20.80984734 -11.5322876 18.25148582 C-13.71354117 15.40880457 -14.22023163 14.16724259 -14.16503906 10.63491821 C-14.17792969 9.80991821 -14.19082031 8.98491821 -14.20410156 8.13491821 C-12.26218102 0.82415852 -6.66511733 -0.09302696 0 0 Z " fill="#000000" transform="translate(139.5400390625,171.36508178710938)"/>
<path d="M0 0 C3.36337088 2.01802253 4.56537386 3.42587329 5.609375 7.20703125 C6.01761664 11.01928775 5.75654904 13.90803575 3.5390625 17.10864258 C2.86617188 17.82173584 2.19328125 18.5348291 1.5 19.26953125 C0.68515137 20.13553955 -0.12969727 21.00154785 -0.96923828 21.89379883 C-1.97715031 22.93147906 -2.9876404 23.96665835 -4 25 C-4.60019958 25.61410736 -5.20039917 26.22821472 -5.81878662 26.8609314 C-10.05621494 31.1827557 -14.32739732 35.46992297 -18.61328125 39.74365234 C-20.89440801 42.01936192 -23.17006798 44.30044221 -25.4453125 46.58203125 C-26.89811649 48.03417539 -28.35123014 49.48600982 -29.8046875 50.9375 C-30.48280487 51.6176416 -31.16092224 52.2977832 -31.85958862 52.99853516 C-32.80670212 53.94092041 -32.80670212 53.94092041 -33.77294922 54.90234375 C-34.325383 55.45398193 -34.87781677 56.00562012 -35.44699097 56.57397461 C-39.30433912 60.11592207 -42.19115508 60.74918238 -47.265625 60.6171875 C-52.8230446 59.3627985 -56.18614448 54.98845263 -60 51 C-61.1460392 49.86733739 -62.29598191 48.73861464 -63.44921875 47.61328125 C-75.28553379 36.00698629 -75.28553379 36.00698629 -75.4375 30.125 C-75.33561505 26.45714165 -75.06821397 25.11368995 -73.125 21.875 C-69.41865115 19.65119069 -66.99202724 19.04968488 -62.69921875 19.2421875 C-57.29173956 20.76035098 -53.757158 25.01873082 -50 29 C-48.66894003 30.33560283 -47.33638094 31.66972126 -46 33 C-43.15930197 31.70956468 -41.1179185 30.3618921 -38.93139648 28.14257812 C-38.36077988 27.56858276 -37.79016327 26.9945874 -37.20225525 26.40319824 C-36.59797195 25.78545532 -35.99368866 25.1677124 -35.37109375 24.53125 C-34.42472801 23.57708191 -34.42472801 23.57708191 -33.45924377 22.6036377 C-31.44718152 20.57378859 -29.4419378 18.53737626 -27.4375 16.5 C-25.42863879 14.46350162 -23.41833226 12.428485 -21.40504456 10.3963623 C-20.15351093 9.13259395 -18.90466028 7.86616167 -17.65879822 6.59680176 C-16.80760155 5.73580872 -16.80760155 5.73580872 -15.93920898 4.85742188 C-15.44275375 4.35271362 -14.94629852 3.84800537 -14.43479919 3.32800293 C-9.97908555 -0.79605903 -5.78295983 -0.85639373 0 0 Z " fill="#000000" transform="translate(421,382)"/>
<path d="M0 0 C3.125 1.875 3.125 1.875 5 5 C5.98876625 10.02622846 5.7769173 13.70513784 3.125 18.125 C-1.29486216 20.7769173 -4.97377154 20.98876625 -10 20 C-13.125 18.125 -13.125 18.125 -15 15 C-15.98876625 9.97377154 -15.7769173 6.29486216 -13.125 1.875 C-8.70513784 -0.7769173 -5.02622846 -0.98876625 0 0 Z " fill="#000000" transform="translate(101,412)"/>
<path d="M0 0 C3.125 1.875 3.125 1.875 5 5 C5.98876625 10.02622846 5.7769173 13.70513784 3.125 18.125 C-1.29486216 20.7769173 -4.97377154 20.98876625 -10 20 C-13.125 18.125 -13.125 18.125 -15 15 C-15.98876625 9.97377154 -15.7769173 6.29486216 -13.125 1.875 C-8.70513784 -0.7769173 -5.02622846 -0.98876625 0 0 Z " fill="#000000" transform="translate(101,352)"/>
<path d="M0 0 C3.125 1.875 3.125 1.875 5 5 C5.98876625 10.02622846 5.7769173 13.70513784 3.125 18.125 C-1.29486216 20.7769173 -4.97377154 20.98876625 -10 20 C-13.125 18.125 -13.125 18.125 -15 15 C-15.98876625 9.97377154 -15.7769173 6.29486216 -13.125 1.875 C-8.70513784 -0.7769173 -5.02622846 -0.98876625 0 0 Z " fill="#000000" transform="translate(101,292)"/>
<path d="M0 0 C3.125 1.875 3.125 1.875 5 5 C5.98876625 10.02622846 5.7769173 13.70513784 3.125 18.125 C-1.29486216 20.7769173 -4.97377154 20.98876625 -10 20 C-13.125 18.125 -13.125 18.125 -15 15 C-15.98876625 9.97377154 -15.7769173 6.29486216 -13.125 1.875 C-8.70513784 -0.7769173 -5.02622846 -0.98876625 0 0 Z " fill="#000000" transform="translate(101,232)"/>
<path d="M0 0 C3.125 1.875 3.125 1.875 5 5 C5.98876625 10.02622846 5.7769173 13.70513784 3.125 18.125 C-1.29486216 20.7769173 -4.97377154 20.98876625 -10 20 C-13.125 18.125 -13.125 18.125 -15 15 C-15.98876625 9.97377154 -15.7769173 6.29486216 -13.125 1.875 C-8.70513784 -0.7769173 -5.02622846 -0.98876625 0 0 Z " fill="#000000" transform="translate(101,172)"/>
<path d="M0 0 C3.125 1.875 3.125 1.875 5 5 C5.98876625 10.02622846 5.7769173 13.70513784 3.125 18.125 C-1.29486216 20.7769173 -4.97377154 20.98876625 -10 20 C-13.125 18.125 -13.125 18.125 -15 15 C-15.98876625 9.97377154 -15.7769173 6.29486216 -13.125 1.875 C-8.70513784 -0.7769173 -5.02622846 -0.98876625 0 0 Z " fill="#000000" transform="translate(221,40)"/>
</svg>
