<?xml version="1.0" standalone="no"?>
<!DOCTYPE svg PUBLIC "-//W3C//DTD SVG 20010904//EN"
 "http://www.w3.org/TR/2001/REC-SVG-20010904/DTD/svg10.dtd">
<svg version="1.0" xmlns="http://www.w3.org/2000/svg"
 width="1144.000000pt" height="1233.000000pt" viewBox="0 0 1144.000000 1233.000000"
 preserveAspectRatio="xMidYMid meet">

<g transform="translate(0.000000,1233.000000) scale(0.100000,-0.100000)"
fill="#000000" stroke="none">
<path d="M5858 10053 c-84 -99 -153 -170 -538 -548 -173 -171 -553 -546 -845
-835 -291 -289 -663 -651 -825 -805 -162 -154 -454 -438 -650 -631 -379 -375
-435 -427 -547 -517 -39 -31 -74 -61 -77 -66 -3 -5 11 -12 31 -16 30 -5 59
-29 149 -118 61 -62 123 -128 137 -146 l26 -35 88 85 c48 46 97 92 108 101 20
17 20 16 17 -1285 -1 -716 0 -1330 3 -1363 l6 -62 617 -3 c1220 -7 4922 -4
5145 5 l227 8 0 225 0 225 -22 -8 c-13 -4 -1254 -9 -2759 -11 l-2736 -4 -7
1323 c-4 728 -8 1346 -9 1373 l-2 50 265 260 c146 143 364 354 485 470 274
261 417 398 615 590 201 194 623 601 770 742 119 114 242 223 343 305 50 40
62 46 79 37 49 -26 286 -231 508 -438 85 -80 218 -204 295 -276 76 -71 189
-177 250 -235 60 -58 144 -137 185 -175 41 -38 167 -160 280 -270 113 -110
304 -295 424 -410 121 -116 299 -290 397 -388 l177 -179 3 -988 c2 -544 6
-990 9 -993 3 -2 102 -7 221 -10 l217 -6 6 31 c3 17 6 354 6 749 0 396 3 719
6 719 16 0 96 -67 119 -99 14 -21 41 -52 60 -71 l36 -35 92 96 c51 52 122 119
159 149 37 30 67 58 67 61 1 4 -51 53 -115 110 -129 114 -382 363 -831 819
-273 277 -628 630 -1349 1340 -143 140 -324 316 -404 390 -169 157 -795 783
-817 817 -9 13 -19 23 -23 23 -4 0 -36 -35 -72 -77z"/>
<path d="M7370 9281 c0 -82 -2 -161 -5 -177 -8 -39 25 -76 452 -508 l345 -349
-6 134 c-3 74 -9 340 -12 592 l-7 457 -383 0 -384 0 0 -149z"/>
<path d="M5841 8679 c-116 -20 -233 -114 -292 -234 -32 -67 -34 -75 -34 -185
0 -112 1 -117 34 -177 71 -131 220 -231 360 -240 129 -9 242 30 332 114 63 59
102 122 128 207 26 85 27 146 1 228 -37 120 -113 207 -227 261 -55 25 -80 30
-157 33 -50 2 -115 -1 -145 -7z"/>
<path d="M4536 7665 c-58 -53 -106 -100 -106 -105 0 -14 -77 -63 -88 -56 -5 3
-12 -16 -16 -42 -3 -26 -3 -481 0 -1012 l7 -965 169 3 168 3 0 1134 c0 976 -2
1135 -14 1135 -8 0 -62 -43 -120 -95z"/>
<path d="M7870 7199 c-25 -4 -132 -8 -238 -8 -106 -1 -191 -5 -188 -10 3 -4 6
-114 6 -245 l1 -236 172 -1 c95 0 202 -3 240 -8 l67 -7 0 263 c0 145 -3 262
-7 262 -5 -1 -28 -5 -53 -10z"/>
<path d="M6784 7181 c4 -5 7 -118 8 -250 l1 -241 238 1 239 1 0 242 0 243
-157 6 c-221 10 -335 9 -329 -2z"/>
<path d="M5645 7042 l-620 -2 1 -978 c1 -537 2 -987 3 -999 l1 -22 635 2 635
2 0 890 c0 490 3 941 7 1003 l6 112 -24 -2 c-13 -2 -303 -4 -644 -6z m451
-928 c-3 -9 -6 -65 -6 -125 l0 -109 -120 0 -120 0 0 120 0 119 103 4 c56 1
113 4 126 5 17 1 22 -2 17 -14z"/>
<path d="M6790 6265 l0 -225 240 0 240 0 0 225 0 225 -240 0 -240 0 0 -225z"/>
<path d="M7450 6393 c0 -54 3 -155 7 -224 l6 -126 225 -2 c124 -1 229 -4 234
-7 4 -3 8 96 8 219 l0 224 -82 6 c-46 4 -154 7 -240 7 l-158 0 0 -97z"/>
<path d="M3695 5263 c4 -10 11 -83 15 -163 5 -80 9 -146 9 -147 1 -2 64 -3
141 -3 l140 0 0 134 c0 73 3 148 6 165 l7 31 -163 0 c-150 0 -162 -1 -155 -17z"/>
<path d="M6380 4859 c-679 -4 -1200 -11 -1250 -17 -47 -6 -93 -11 -103 -11
-15 -1 -16 -4 -6 -23 8 -15 10 -61 6 -146 l-5 -123 87 6 c145 9 3403 16 3616
7 110 -5 201 -8 202 -8 1 1 3 69 4 151 l3 150 -84 6 c-163 12 -1314 16 -2470
8z"/>
<path d="M2934 3281 c4 -97 8 -176 9 -177 6 -4 2411 -8 3835 -6 898 2 1637 0
1642 -3 12 -7 13 40 4 226 l-7 134 -2745 0 -2745 1 7 -175z"/>
<path d="M8728 3453 l-78 -4 0 -164 0 -164 139 -3 140 -3 5 60 c3 33 4 111 3
172 l-2 113 -65 -2 c-36 -1 -100 -4 -142 -5z"/>
</g>
</svg>
