<?xml version="1.0" standalone="no"?>
<!DOCTYPE svg PUBLIC "-//W3C//DTD SVG 20010904//EN"
 "http://www.w3.org/TR/2001/REC-SVG-20010904/DTD/svg10.dtd">
<svg version="1.0" xmlns="http://www.w3.org/2000/svg"
 width="1000.000000pt" height="1080.000000pt" viewBox="0 0 1000.000000 1080.000000"
 preserveAspectRatio="xMidYMid meet">

<g transform="translate(0.000000,1080.000000) scale(0.100000,-0.100000)"
fill="#000000" stroke="none">
<path d="M2500 8100 c0 -5 74 -137 163 -293 196 -337 445 -769 949 -1642 207
-357 476 -823 598 -1035 122 -212 269 -467 327 -567 l105 -183 1108 0 1107 0
32 123 c18 67 163 608 322 1202 159 594 290 1087 292 1095 2 13 -211 16 -1846
20 l-1849 5 -370 642 -371 642 -284 1 c-188 0 -283 -3 -283 -10z m4348 -1812
c-7 -32 -357 -1336 -369 -1375 l-11 -33 -768 0 -768 0 -115 198 c-63 108 -158
274 -212 367 -54 94 -188 325 -297 513 -109 189 -198 346 -198 348 0 2 617 4
1371 4 l1371 0 -4 -22z"/>
<path d="M4952 4189 c-70 -12 -138 -48 -188 -101 -53 -56 -69 -83 -88 -148
-20 -68 -20 -122 0 -190 19 -65 35 -92 88 -148 164 -174 462 -123 565 97 22
47 26 70 26 146 0 76 -4 99 -26 146 -32 69 -91 130 -157 163 -42 22 -66 28
-147 40 -11 2 -44 -1 -73 -5z"/>
<path d="M6434 4189 c-74 -9 -169 -64 -215 -121 -57 -73 -82 -147 -77 -238 10
-213 193 -362 402 -329 114 19 213 95 262 202 24 52 28 75 28 142 0 67 -4 90
-28 143 -65 142 -214 222 -372 201z"/>
</g>
</svg>
