<?xml version="1.0" standalone="no"?>
<!DOCTYPE svg PUBLIC "-//W3C//DTD SVG 20010904//EN"
 "http://www.w3.org/TR/2001/REC-SVG-20010904/DTD/svg10.dtd">
<svg version="1.0" xmlns="http://www.w3.org/2000/svg"
 width="248.000000pt" height="203.000000pt" viewBox="0 0 248.000000 203.000000"
 preserveAspectRatio="xMidYMid meet">

<g transform="translate(0.000000,203.000000) scale(0.100000,-0.100000)"
fill="#000000" stroke="none">
<path d="M530 2015 c14 -8 37 -14 52 -15 15 0 29 -4 33 -9 8 -14 63 -10 69 5
3 7 14 12 26 11 20 -1 20 -2 4 -14 -36 -26 14 -37 166 -36 76 1 109 -2 98 -8
-24 -13 -377 -12 -449 2 -49 10 -63 9 -69 -1 -13 -21 -11 -192 3 -221 7 -15
38 -51 70 -80 l58 -52 122 23 c240 45 274 50 397 56 77 4 133 12 147 20 11 7
33 38 47 68 23 48 26 68 26 160 l0 106 -29 0 c-17 0 -51 -11 -77 -25 -26 -14
-56 -25 -66 -25 -11 0 -35 -7 -54 -16 -19 -9 -38 -13 -42 -9 -11 11 37 45 64
45 15 0 24 6 24 15 0 13 -42 15 -322 15 -285 -1 -320 -2 -298 -15z m250 -19
c0 -11 -19 -15 -25 -6 -3 5 1 10 9 10 9 0 16 -2 16 -4z m267 -42 c-3 -3 -12
-4 -19 -1 -8 3 -5 6 6 6 11 1 17 -2 13 -5z"/>
<path d="M1178 2023 c6 -2 18 -2 25 0 6 3 1 5 -13 5 -14 0 -19 -2 -12 -5z"/>
<path d="M1692 1968 c-19 -19 -14 -39 15 -70 34 -36 45 -36 32 0 -5 15 -8 39
-7 52 3 27 -20 38 -40 18z"/>
<path d="M1876 1878 c14 -46 32 -63 67 -60 22 2 41 -4 56 -17 13 -12 19 -21
13 -21 -7 0 -12 -6 -12 -14 0 -7 19 -18 43 -25 180 -47 282 -54 312 -21 10 11
24 20 32 20 7 0 13 4 13 9 0 5 11 12 25 15 14 4 25 11 25 16 0 6 7 10 15 10
19 0 20 46 1 53 -8 3 -82 6 -166 6 -143 1 -345 22 -398 42 -33 13 -34 12 -26
-13z"/>
<path d="M1515 1590 c-20 -9 -20 -9 1 -9 11 -1 26 -7 33 -13 10 -11 12 -9 9 6
-4 23 -16 28 -43 16z"/>
<path d="M1336 1576 c3 -9 11 -16 16 -16 13 0 5 23 -10 28 -7 2 -10 -2 -6 -12z"/>
<path d="M956 1563 c-6 -14 -5 -15 5 -6 7 7 10 15 7 18 -3 3 -9 -2 -12 -12z"/>
<path d="M1401 1561 c-7 -5 -12 -14 -10 -20 3 -6 9 -7 18 -2 7 5 12 14 10 20
-3 6 -9 7 -18 2z"/>
<path d="M1580 1560 c-9 -5 -9 -9 -1 -14 6 -4 11 -2 11 5 0 10 3 10 12 1 14
-14 42 -16 34 -3 -8 13 -42 20 -56 11z"/>
<path d="M196 1518 c-14 -41 -15 -48 -7 -48 17 0 28 25 21 45 -7 18 -8 18 -14
3z"/>
<path d="M1038 1523 c7 -3 16 -2 19 1 4 3 -2 6 -13 5 -11 0 -14 -3 -6 -6z"/>
<path d="M1366 1518 c-4 -9 -5 -22 -1 -29 6 -8 2 -8 -12 0 -11 6 -24 7 -28 3
-5 -4 -5 1 -2 11 4 11 1 17 -8 17 -8 0 -15 -5 -15 -11 0 -5 -4 -7 -10 -4 -5 3
-10 1 -10 -5 0 -13 -32 -9 -42 5 -4 6 -8 2 -8 -8 0 -10 -4 -16 -9 -12 -5 3
-12 1 -16 -4 -3 -6 -12 -8 -19 -5 -8 3 -17 1 -20 -4 -8 -14 21 -35 35 -26 8 5
9 3 4 -5 -6 -10 -3 -11 13 -2 17 9 22 8 27 -9 7 -23 21 -26 28 -7 3 9 8 9 21
-2 15 -13 21 -10 52 22 27 28 35 43 32 64 -3 22 -6 25 -12 11z m-106 -54 c13
-15 6 -16 -50 -5 -6 2 23 21 31 21 4 0 12 -7 19 -16z"/>
<path d="M1445 1510 c3 -5 -3 -10 -14 -10 -11 0 -22 -4 -26 -9 -3 -6 6 -6 25
-1 18 5 32 5 36 -1 6 -11 24 -2 24 11 0 5 -7 7 -15 4 -8 -4 -15 -1 -15 5 0 6
-5 11 -11 11 -5 0 -7 -4 -4 -10z"/>
<path d="M1037 1487 c-3 -8 -1 -20 4 -28 6 -10 9 -7 9 14 0 29 -5 35 -13 14z"/>
<path d="M385 1470 c-3 -5 -2 -10 4 -10 5 0 13 5 16 10 3 6 2 10 -4 10 -5 0
-13 -4 -16 -10z"/>
<path d="M905 1449 c-4 -6 -5 -12 -2 -15 2 -3 7 2 10 11 7 17 1 20 -8 4z"/>
<path d="M278 1433 c7 -3 16 -2 19 1 4 3 -2 6 -13 5 -11 0 -14 -3 -6 -6z"/>
<path d="M1410 1422 c-25 -21 -19 -49 13 -54 26 -4 36 -43 13 -51 -9 -4 -36 2
-61 13 -25 11 -45 16 -45 11 0 -14 23 -29 55 -37 17 -4 36 -16 44 -26 9 -14
16 -17 24 -9 6 6 19 11 29 11 10 0 18 5 18 10 0 6 -4 10 -9 10 -5 0 -7 10 -3
22 4 15 2 19 -7 14 -7 -5 -3 10 8 32 l20 40 -24 16 c-31 21 -48 20 -75 -2z"/>
<path d="M1095 1420 c-4 -7 0 -19 9 -28 21 -21 27 -12 12 17 -9 17 -15 20 -21
11z"/>
<path d="M895 1400 c-3 -5 -1 -10 4 -10 6 0 11 5 11 10 0 6 -2 10 -4 10 -3 0
-8 -4 -11 -10z"/>
<path d="M1203 1389 c6 -10 20 -22 30 -25 33 -10 29 3 -7 24 -34 20 -35 20
-23 1z"/>
<path d="M1080 1376 c0 -9 5 -16 10 -16 6 0 10 4 10 9 0 6 -4 13 -10 16 -5 3
-10 -1 -10 -9z"/>
<path d="M1640 1357 c0 -19 -7 -40 -15 -47 -13 -11 -13 -15 -3 -21 8 -6 9 -9
2 -9 -7 0 -15 -17 -19 -37 -4 -21 -11 -44 -17 -50 -7 -9 -7 -17 1 -27 9 -11 7
-13 -12 -11 -31 4 -31 -18 0 -32 18 -9 23 -8 23 3 0 8 5 14 10 14 6 0 10 -4
10 -10 0 -5 7 -10 15 -10 8 0 15 7 15 16 0 8 5 12 10 9 6 -4 9 -12 8 -19 -3
-13 9 -16 30 -8 19 7 29 -8 12 -18 -11 -7 -11 -11 -1 -23 19 -24 84 -52 89
-38 4 13 32 15 32 1 0 -5 10 -15 22 -21 27 -14 108 -19 108 -7 0 5 -4 7 -9 4
-4 -3 -17 4 -27 16 -11 12 -13 18 -5 13 9 -5 12 -3 9 6 -3 8 -15 16 -28 17
-13 2 -37 17 -54 33 -17 16 -32 24 -34 19 -8 -24 -28 -7 -28 24 0 33 0 33 18
12 14 -18 17 -18 18 -4 0 9 6 19 13 22 9 3 7 9 -5 19 -10 8 -18 20 -18 28 -1
10 -4 10 -14 -3 -12 -16 -14 -16 -29 3 -9 10 -17 24 -17 30 0 7 -9 20 -20 29
-14 12 -17 21 -10 25 6 4 19 -2 29 -14 10 -11 21 -18 24 -15 7 8 -15 44 -26
44 -5 0 -26 13 -46 28 -59 47 -61 47 -61 9z m30 -132 c0 -5 -5 -3 -10 5 -5 8
-10 20 -10 25 0 6 5 3 10 -5 5 -8 10 -19 10 -25z m25 15 c3 -5 1 -10 -4 -10
-6 0 -11 5 -11 10 0 6 2 10 4 10 3 0 8 -4 11 -10z"/>
<path d="M1121 1361 c-8 -5 -11 -15 -8 -23 4 -11 -1 -14 -20 -10 -21 4 -24 1
-21 -18 2 -15 11 -24 26 -26 12 -2 22 1 22 6 0 6 5 10 11 10 5 0 7 -4 4 -10
-3 -5 0 -10 8 -10 25 0 28 29 6 51 -17 17 -19 23 -8 30 8 5 10 9 4 9 -5 0 -16
-4 -24 -9z"/>
<path d="M1505 1329 c-4 -6 -5 -12 -2 -15 2 -3 7 2 10 11 7 17 1 20 -8 4z"/>
<path d="M1097 1255 c-15 -11 -16 -17 -8 -34 6 -11 11 -29 11 -41 0 -12 10
-31 23 -42 17 -15 18 -18 5 -14 -13 4 -18 0 -18 -14 0 -16 4 -18 24 -10 13 5
26 7 29 4 2 -3 18 16 33 41 16 25 32 45 36 45 15 0 18 -21 4 -26 -13 -5 -14
-8 -1 -20 8 -8 12 -22 9 -32 -5 -14 -4 -15 5 -2 5 8 13 11 17 7 4 -3 1 -13 -5
-21 -14 -16 -5 -23 27 -20 13 1 22 -4 22 -12 0 -8 10 -14 21 -14 19 0 21 4 15
30 -5 28 -4 30 14 20 13 -7 20 -21 20 -40 0 -17 5 -30 13 -30 8 0 9 -3 1 -8
-6 -4 -16 -17 -23 -30 -18 -33 -70 -62 -114 -62 -23 0 -36 -4 -32 -10 4 -6 11
-8 16 -5 5 4 9 -1 9 -9 0 -9 -4 -16 -10 -16 -13 0 -13 -66 0 -90 7 -13 6 -27
-2 -45 -10 -22 -9 -28 3 -36 10 -6 10 -9 2 -9 -21 0 -16 -69 5 -77 9 -3 26
-13 36 -22 18 -15 18 -15 7 7 -10 18 -9 22 4 22 16 0 21 -35 6 -44 -5 -3 -25
1 -45 9 l-36 15 0 -38 c0 -39 -22 -83 -35 -70 -4 4 -10 28 -13 53 -2 25 -7 44
-9 41 -7 -7 -32 18 -27 26 3 4 -8 10 -23 14 -59 13 -93 26 -88 34 3 5 -3 10
-12 12 -25 5 -64 -3 -58 -11 2 -4 -2 -8 -10 -8 -8 0 -15 7 -15 14 0 12 -3 11
-16 -1 -8 -9 -20 -16 -25 -16 -5 0 -8 -11 -7 -25 1 -14 8 -25 14 -25 7 0 14
-5 16 -12 3 -8 12 -9 35 0 25 8 33 8 37 -4 3 -9 -1 -14 -14 -14 -27 0 -33 -15
-7 -18 49 -4 72 -1 94 13 13 9 23 11 23 6 0 -11 -44 -61 -53 -61 -3 0 -18 -5
-34 -12 -37 -15 -65 -18 -79 -7 -10 8 -77 25 -124 32 -8 1 -18 6 -21 10 -6 8
-79 -17 -79 -27 0 -3 13 -3 29 0 16 4 32 1 35 -5 4 -6 0 -11 -9 -11 -15 0 -15
-1 -1 -16 14 -14 18 -13 38 6 44 40 57 -2 15 -49 -16 -17 -18 -25 -9 -28 6 -3
10 -9 6 -14 -3 -5 5 -13 18 -19 27 -11 184 -40 217 -40 24 0 25 8 6 52 -11 27
20 23 33 -5 9 -18 11 -19 11 -4 1 10 5 16 10 12 12 -7 29 24 26 47 -3 19 33
29 82 21 27 -5 33 -10 33 -29 0 -13 -5 -24 -11 -24 -5 0 -7 -5 -3 -12 5 -7 11
-5 21 8 8 10 19 18 24 17 5 -2 9 1 9 6 0 15 32 22 46 10 10 -8 18 -7 31 7 17
17 17 17 -7 12 -14 -3 -36 -2 -50 2 -20 6 -21 8 -6 9 20 1 20 1 0 17 -10 8
-13 13 -6 9 6 -3 12 -3 12 2 0 4 4 14 9 22 8 12 11 12 23 0 8 -8 13 -19 11
-26 -3 -7 3 -9 16 -6 14 3 21 1 21 -8 0 -10 4 -9 16 3 12 12 20 13 40 4 33
-15 30 -22 -17 -46 -23 -12 -39 -24 -36 -27 12 -11 219 20 224 34 3 7 9 10 14
7 5 -3 9 0 9 5 0 6 7 11 15 11 8 0 15 -4 15 -9 0 -9 101 28 110 41 3 4 12 3
19 -1 16 -10 6 -31 -14 -31 -8 0 -29 -9 -47 -19 -18 -11 -44 -21 -58 -23 -14
-2 -31 -7 -38 -12 -7 -4 -23 -10 -35 -12 -12 -2 -64 -13 -116 -24 -52 -11
-102 -18 -111 -15 -10 3 -29 1 -43 -4 -20 -8 -29 -6 -48 15 -13 14 -26 20 -33
15 -11 -8 -33 -7 -91 4 -27 5 -32 2 -47 -28 l-16 -34 51 -3 c124 -5 197 -2
275 13 64 13 98 15 149 7 71 -10 83 -7 83 16 0 8 5 14 10 14 6 0 10 7 10 15 0
8 7 15 15 15 8 0 15 4 15 8 0 5 34 20 75 33 65 20 73 25 61 39 -18 22 -9 49
14 43 15 -4 18 -1 13 19 -5 23 -5 23 10 3 15 -18 15 -21 -3 -34 -32 -22 -10
-50 37 -46 21 2 41 -1 45 -7 11 -18 -29 -46 -67 -46 -57 0 -192 -53 -181 -71
7 -11 98 6 107 20 4 7 12 8 18 4 13 -8 150 20 196 40 17 7 60 24 96 38 88 33
168 87 229 155 59 66 73 108 64 189 -8 68 -23 90 -65 91 -17 0 -36 6 -43 11
-11 9 -12 -7 -8 -84 3 -63 1 -95 -6 -95 -13 0 -30 54 -30 95 -1 44 -20 88 -36
82 -7 -3 -17 -2 -22 3 -15 14 -64 -1 -64 -19 0 -9 22 -45 50 -81 49 -65 64
-94 35 -70 -8 7 -15 9 -15 5 0 -4 -12 4 -26 18 -21 21 -30 24 -45 16 -11 -5
-19 -16 -19 -24 0 -16 -31 -28 -53 -19 -24 9 -18 46 7 40 23 -6 59 11 51 24
-3 5 -1 19 5 31 9 16 8 24 -5 39 -14 16 -21 32 -24 61 -1 4 -10 9 -21 12 -11
3 -28 19 -37 36 -23 39 -41 46 -64 25 -23 -21 -11 -47 31 -69 32 -16 76 -72
65 -83 -4 -4 -12 0 -18 9 -15 20 -57 43 -57 30 0 -5 7 -12 16 -15 9 -4 14 -13
10 -22 -3 -8 1 -27 10 -42 15 -26 15 -26 -1 -4 -22 29 -45 28 -81 -3 -16 -14
-41 -31 -56 -38 -28 -12 -37 -27 -17 -27 7 0 18 -8 24 -17 10 -13 26 -17 65
-16 43 1 51 -2 48 -15 -10 -50 -190 7 -209 67 -3 7 -5 -14 -6 -48 -1 -33 -7
-70 -13 -82 -11 -20 -12 -20 -25 -2 -11 15 -17 16 -33 6 -19 -11 -32 -8 -32 8
0 4 9 11 21 14 11 4 18 13 15 20 -2 7 2 16 10 19 9 3 12 1 9 -4 -3 -6 -2 -10
3 -10 5 0 9 20 10 45 0 38 -3 45 -19 45 -10 0 -25 13 -34 30 -9 17 -20 30 -25
30 -5 0 -12 9 -15 20 -3 11 -13 20 -21 20 -8 0 -17 7 -20 15 -4 8 -10 15 -15
15 -20 0 -129 125 -129 147 0 7 -5 13 -11 13 -6 0 -9 7 -6 15 4 8 2 17 -3 20
-5 3 -7 12 -4 20 4 9 -3 16 -20 21 -14 3 -23 10 -21 15 3 5 -6 11 -20 15 -17
4 -24 11 -21 20 3 8 -1 14 -9 14 -8 0 -15 6 -15 14 0 17 -37 46 -59 46 -11 0
-11 -3 2 -18 19 -21 23 -42 5 -24 -7 7 -20 12 -29 12 -10 0 -20 6 -22 13 -3 7
-6 5 -6 -5 -1 -10 -5 -18 -10 -18 -7 0 -80 31 -111 47 -3 1 -13 -4 -23 -12z
m297 -146 c-3 -5 -10 -7 -15 -3 -5 3 -7 10 -3 15 3 5 10 7 15 3 5 -3 7 -10 3
-15z m66 -84 c-7 -9 -15 -13 -17 -11 -7 7 7 26 19 26 6 0 6 -6 -2 -15z m537
-45 c2 -11 -2 -20 -7 -20 -6 0 -10 12 -10 27 0 29 12 24 17 -7z m-601 -29 c-3
-5 0 -11 8 -14 19 -8 66 -105 66 -138 0 -23 -3 -26 -21 -22 -17 5 -20 11 -15
34 3 18 1 29 -9 33 -37 14 -71 116 -39 116 8 0 13 -4 10 -9z m161 -83 c-3 -8
-6 -5 -6 6 -1 11 2 17 5 13 3 -3 4 -12 1 -19z m658 12 c3 -6 -1 -7 -9 -4 -18
7 -21 14 -7 14 6 0 13 -4 16 -10z m-869 -45 c6 -35 -12 -91 -32 -99 -14 -5
-15 3 -11 58 3 35 8 69 12 76 10 16 25 0 31 -35z m164 4 c0 -10 6 -19 13 -20
10 0 10 -2 0 -6 -7 -2 -13 -11 -13 -19 0 -8 -4 -14 -8 -14 -5 0 -10 21 -10 46
-2 28 2 43 8 39 5 -3 10 -15 10 -26z m-14 -136 c-10 -10 -19 5 -10 18 6 11 8
11 12 0 2 -7 1 -15 -2 -18z m657 -10 c13 -28 13 -33 3 -18 -9 11 -20 25 -26
32 -12 15 -13 23 -2 23 5 0 16 -17 25 -37z m-623 7 c0 -5 -4 -10 -10 -10 -5 0
-10 5 -10 10 0 6 5 10 10 10 6 0 10 -4 10 -10z m-80 -24 c0 -7 -6 -18 -12 -25
-11 -10 -10 -11 2 -6 11 4 16 -1 17 -16 2 -17 -1 -18 -13 -8 -12 10 -13 9 -8
-5 3 -9 1 -16 -4 -16 -13 0 -27 -38 -23 -62 3 -22 -12 -30 -40 -20 l-23 9 22
12 c12 7 20 16 16 22 -3 5 -1 15 4 22 14 19 23 76 12 82 -16 10 -4 20 24 21
14 1 26 -3 26 -10z m85 -6 c3 -5 1 -10 -4 -10 -6 0 -11 5 -11 10 0 6 2 10 4
10 3 0 8 -4 11 -10z m-505 -55 c0 -8 -2 -15 -4 -15 -2 0 -6 7 -10 15 -3 8 -1
15 4 15 6 0 10 -7 10 -15z m508 -18 c5 -23 -10 -21 -26 4 -12 18 -11 20 5 17
10 -2 19 -11 21 -21z m23 0 c-10 -9 -11 -8 -5 6 3 10 9 15 12 12 3 -3 0 -11
-7 -18z m-188 6 c4 -3 -5 -12 -19 -20 -34 -17 -37 -17 -24 7 11 20 31 26 43
13z m287 -3 c0 -5 -4 -10 -10 -10 -5 0 -10 5 -10 10 0 6 5 10 10 10 6 0 10 -4
10 -10z m95 -10 c-3 -5 -14 -10 -23 -10 -15 0 -15 2 -2 10 20 13 33 13 25 0z
m241 -37 c-10 -10 -19 5 -10 18 6 11 8 11 12 0 2 -7 1 -15 -2 -18z m-380 -2
c-3 -4 4 -7 14 -7 30 1 24 -18 -8 -25 -26 -5 -28 -4 -24 23 2 15 8 25 13 22 5
-3 7 -9 5 -13z m366 -10 c13 -18 15 -19 41 -23 6 0 -8 -4 -33 -7 -47 -6 -67 6
-56 35 8 20 32 18 48 -5z m113 -11 c-3 -5 -12 -10 -18 -10 -7 0 -6 4 3 10 19
12 23 12 15 0z m-64 -63 c-9 -9 -14 -8 -21 3 -16 24 -11 31 11 19 16 -8 18
-14 10 -22z m-986 -35 c-2 -2 -11 -5 -22 -6 -22 -4 -43 11 -43 30 0 11 7 10
34 -4 19 -9 33 -18 31 -20z"/>
<path d="M991 1213 c-1 -17 4 -35 9 -38 11 -7 11 9 0 45 -8 24 -8 24 -9 -7z"/>
<path d="M1540 1215 c-16 -19 -4 -39 14 -23 14 13 17 38 6 38 -4 0 -13 -7 -20
-15z"/>
<path d="M537 1186 c-15 -12 -16 -14 -2 -20 9 -3 15 0 15 8 0 8 6 17 13 19 6
3 8 6 2 6 -5 0 -18 -6 -28 -13z"/>
<path d="M1431 1164 c0 -11 3 -14 6 -6 3 7 2 16 -1 19 -3 4 -6 -2 -5 -13z"/>
<path d="M1860 1160 c0 -5 5 -10 11 -10 5 0 7 5 4 10 -3 6 -8 10 -11 10 -2 0
-4 -4 -4 -10z"/>
<path d="M440 1125 c-2 -22 -2 -54 -1 -72 1 -17 -3 -41 -9 -52 -8 -15 -8 -21
0 -21 7 0 9 -8 5 -19 -4 -13 0 -20 16 -24 16 -4 23 0 27 15 5 20 5 20 17 -1
10 -20 13 -21 24 -7 10 12 11 19 2 30 -10 11 -8 17 6 25 16 10 16 12 3 20 -29
18 -63 51 -52 51 19 0 14 24 -7 37 -11 7 -21 23 -24 35 -3 15 -5 9 -7 -17z"/>
<path d="M1920 1149 c0 -5 5 -7 10 -4 6 3 10 8 10 11 0 2 -4 4 -10 4 -5 0 -10
-5 -10 -11z"/>
<path d="M1475 1140 c-3 -5 -1 -10 4 -10 6 0 11 5 11 10 0 6 -2 10 -4 10 -3 0
-8 -4 -11 -10z"/>
<path d="M1980 1141 c0 -16 30 -33 47 -26 16 6 15 8 -7 20 -29 17 -40 18 -40
6z"/>
<path d="M875 1123 c4 -10 9 -35 12 -55 6 -40 17 -49 27 -22 3 9 -1 25 -9 37
-8 12 -15 29 -15 39 0 10 -5 18 -11 18 -7 0 -8 -7 -4 -17z"/>
<path d="M776 1109 c-15 -12 -46 -27 -68 -34 -26 -7 -44 -20 -49 -33 -11 -30
8 -29 55 3 20 14 40 25 44 25 4 1 23 14 42 30 40 35 18 42 -24 9z"/>
<path d="M390 1112 c0 -18 -83 -131 -97 -131 -7 -1 -13 -12 -13 -25 0 -13 -5
-26 -11 -28 -16 -5 -39 -77 -39 -123 0 -48 27 -102 87 -173 51 -60 83 -82 83
-57 0 8 -7 15 -15 15 -8 0 -14 3 -13 8 1 4 -2 19 -7 35 -6 22 -10 25 -21 16
-16 -13 -19 -12 -28 16 -5 17 -1 20 25 20 22 0 38 -9 56 -30 22 -26 24 -27 19
-7 -15 57 -17 60 -35 55 -14 -3 -23 4 -33 24 -8 15 -19 27 -24 26 -6 -1 -9 8
-8 20 1 12 3 26 3 30 1 5 6 5 11 2 6 -3 10 -2 10 3 0 5 19 17 43 27 23 11 44
20 46 22 3 2 -5 13 -16 26 -18 20 -19 30 -12 122 4 57 3 104 -2 110 -6 5 -9 5
-9 -3z"/>
<path d="M696 1104 c-5 -14 -4 -15 9 -4 17 14 19 20 6 20 -5 0 -12 -7 -15 -16z"/>
<path d="M1490 1100 c11 -11 20 -27 20 -36 0 -8 21 -34 47 -57 26 -23 75 -68
110 -100 l62 -59 3 33 c2 18 9 34 17 37 9 3 11 -2 6 -17 -4 -15 -1 -23 9 -27
9 -4 16 -11 15 -18 -3 -27 2 -47 11 -41 5 3 7 0 4 -8 -3 -8 2 -17 10 -20 9 -4
16 -2 16 3 0 6 9 6 25 0 20 -8 29 -6 45 10 11 11 14 20 8 22 -8 3 -8 10 1 24
10 15 11 15 7 2 -4 -13 0 -18 13 -18 27 0 33 25 15 63 -15 32 -42 49 -95 62
-14 3 -36 16 -50 28 -14 12 -18 18 -9 12 13 -9 13 -8 2 7 -8 10 -17 17 -20 16
-14 -2 -82 33 -82 42 0 6 -4 10 -10 10 -5 0 -9 -3 -9 -7 1 -5 1 -19 0 -32 -1
-24 -1 -24 -16 -5 -14 18 -16 18 -29 1 -12 -16 -14 -16 -20 -1 -8 22 -8 26 3
19 5 -3 12 -2 15 3 4 8 -75 36 -91 32 -4 -1 -10 8 -15 19 -4 12 -14 21 -23 21
-12 0 -11 -4 5 -20z m150 -80 c0 -5 -4 -10 -10 -10 -5 0 -10 5 -10 10 0 6 5
10 10 10 6 0 10 -4 10 -10z m88 -41 c15 -19 18 -27 8 -23 -16 6 -51 54 -39 53
5 0 18 -13 31 -30z m-38 1 c0 -5 -2 -10 -4 -10 -3 0 -8 5 -11 10 -3 6 -1 10 4
10 6 0 11 -4 11 -10z m111 -60 c10 -6 19 -16 19 -22 0 -6 -8 -4 -18 5 -10 10
-22 14 -25 10 -4 -3 -7 -1 -7 5 0 15 6 15 31 2z m77 -75 c-11 -12 -36 7 -41
32 l-5 25 26 -26 c14 -14 23 -28 20 -31z"/>
<path d="M2154 1106 c-3 -8 -1 -23 5 -33 9 -16 10 -16 11 -1 0 9 3 23 6 32 3
9 1 16 -5 16 -7 0 -14 -6 -17 -14z"/>
<path d="M1145 1091 c-3 -5 -1 -12 5 -16 5 -3 10 1 10 9 0 18 -6 21 -15 7z"/>
<path d="M1096 1067 c3 -10 9 -15 12 -12 3 3 0 11 -7 18 -10 9 -11 8 -5 -6z"/>
<path d="M810 1051 c-13 -26 -13 -38 1 -24 6 6 17 9 24 6 10 -3 12 2 8 16 -7
26 -19 27 -33 2z"/>
<path d="M2077 1053 c3 -7 14 -13 24 -13 11 0 16 5 13 13 -2 7 -13 13 -23 13
-11 0 -17 -6 -14 -13z"/>
<path d="M1190 1027 c0 -42 21 -59 70 -55 24 2 45 8 47 13 4 13 -54 51 -89 59
-24 6 -28 3 -28 -17z"/>
<path d="M2186 1041 c-9 -13 8 -37 36 -52 15 -8 18 -6 18 11 0 11 -5 20 -11
20 -7 0 -17 7 -24 17 -9 12 -14 13 -19 4z"/>
<path d="M954 1026 c-3 -9 -4 -23 -1 -30 4 -11 1 -13 -11 -10 -9 3 -4 -2 11
-11 30 -17 67 -28 67 -19 0 15 -22 44 -31 39 -5 -4 -10 -1 -10 4 -3 26 -4 30
-11 37 -4 4 -10 -1 -14 -10z"/>
<path d="M1116 1027 c3 -10 9 -15 12 -12 3 3 0 11 -7 18 -10 9 -11 8 -5 -6z"/>
<path d="M732 1003 c-20 -10 -31 -21 -28 -29 3 -8 -1 -14 -9 -14 -8 0 -24 -9
-36 -21 -18 -18 -19 -24 -8 -51 10 -24 10 -31 -1 -38 -9 -5 -9 -9 -1 -13 7 -3
7 -5 -1 -3 -7 2 -14 11 -14 22 -1 10 -2 25 -3 32 -1 7 -5 10 -11 7 -6 -3 -7 1
-4 9 6 17 -4 20 -30 10 -8 -3 -12 -13 -9 -22 10 -33 27 -62 35 -62 5 0 20 -8
35 -17 16 -10 41 -16 64 -14 23 1 39 -2 39 -8 0 -6 10 -11 22 -11 21 0 21 0 2
16 -16 13 -16 15 -2 10 11 -3 23 3 33 17 8 12 15 17 15 12 0 -5 5 -4 12 3 8 8
8 15 -2 28 -12 14 -11 18 10 35 14 10 28 19 33 19 4 0 7 12 7 26 0 22 -3 24
-22 18 -49 -15 -68 -24 -68 -32 0 -14 -36 -52 -49 -52 -6 0 -11 14 -11 31 0
17 -4 28 -10 24 -17 -11 -11 13 8 27 25 20 56 58 46 58 -5 0 -24 -8 -42 -17z
m8 -17 c0 -3 -4 -8 -10 -11 -5 -3 -10 -1 -10 4 0 6 5 11 10 11 6 0 10 -2 10
-4z"/>
<path d="M912 961 c-10 -6 -10 -10 3 -21 19 -15 25 -11 16 12 -4 11 -11 14
-19 9z"/>
<path d="M1106 961 c-5 -7 20 -32 31 -31 5 0 8 -6 8 -12 0 -8 -10 -12 -25 -11
-14 2 -63 5 -109 7 -77 3 -82 2 -58 -11 30 -15 42 -49 34 -97 -4 -25 0 -37 15
-50 11 -10 23 -15 26 -11 4 4 -1 11 -11 16 -21 12 -23 31 -2 23 8 -4 15 -1 15
6 0 10 4 9 16 -1 13 -10 17 -10 24 0 5 9 10 10 14 3 4 -6 13 -9 21 -5 9 3 15
-1 15 -10 0 -9 9 -19 21 -22 32 -10 48 20 42 80 -9 93 -21 122 -48 128 -14 2
-27 2 -29 -2z"/>
<path d="M2106 941 c17 -17 79 -18 69 -1 -3 6 -23 10 -43 10 -22 0 -32 -4 -26
-9z"/>
<path d="M910 886 c0 -9 5 -16 10 -16 6 0 10 4 10 9 0 6 -4 13 -10 16 -5 3
-10 -1 -10 -9z"/>
<path d="M900 845 c0 -9 -11 -20 -24 -24 -13 -5 -26 -19 -29 -30 -4 -18 -1
-21 24 -21 16 0 29 5 29 10 0 6 6 10 14 10 22 0 26 45 4 59 -14 9 -18 8 -18
-4z"/>
<path d="M2134 833 c4 -7 2 -13 -3 -13 -6 0 -11 -4 -11 -10 0 -5 9 -10 20 -10
24 0 26 13 3 31 -11 10 -14 10 -9 2z"/>
<path d="M540 804 c-6 -14 -10 -36 -10 -49 0 -26 21 -46 28 -27 2 7 8 12 13
12 6 0 7 -6 4 -12 -4 -7 3 -2 15 11 l21 24 -21 22 c-11 12 -20 27 -20 33 0 22
-20 12 -30 -14z"/>
<path d="M690 735 c0 -7 6 -18 14 -22 8 -4 15 -15 17 -23 4 -14 13 -13 74 7
43 14 59 22 40 21 -16 -1 -47 4 -67 11 -21 7 -42 10 -48 6 -5 -3 -10 -1 -10 4
0 6 -4 11 -10 11 -5 0 -10 -7 -10 -15z m95 -25 c3 -6 -1 -7 -9 -4 -18 7 -21
14 -7 14 6 0 13 -4 16 -10z"/>
<path d="M1138 714 c-23 -8 -40 -9 -43 -3 -9 14 -25 11 -25 -5 0 -19 41 -28
59 -13 10 8 13 9 8 0 -8 -13 1 -43 14 -43 7 0 32 71 26 76 -1 1 -19 -4 -39
-12z"/>
<path d="M485 695 c7 -33 12 -41 21 -33 3 4 -2 19 -11 35 l-16 28 6 -30z"/>
<path d="M566 688 c3 -13 10 -24 14 -26 4 -2 6 -11 3 -21 -5 -19 10 -35 44
-45 22 -7 22 -6 9 26 -8 18 -12 47 -9 63 3 22 2 26 -6 15 -5 -8 -7 -18 -4 -24
4 -5 -1 -7 -11 -3 -10 4 -20 7 -22 7 -2 0 -4 7 -4 15 0 8 -5 15 -11 15 -6 0
-8 -9 -3 -22z"/>
<path d="M809 636 c6 -8 21 -16 32 -19 20 -5 20 -5 3 14 -20 23 -54 28 -35 5z"/>
<path d="M645 500 c3 -5 -1 -10 -9 -10 -9 0 -16 -6 -16 -14 0 -27 16 -25 34 5
15 26 16 29 1 29 -9 0 -13 -4 -10 -10z"/>
<path d="M740 431 c0 -5 5 -13 10 -16 6 -3 10 -2 10 4 0 5 -4 13 -10 16 -5 3
-10 2 -10 -4z"/>
<path d="M0 406 c0 -17 10 -31 33 -45 18 -11 44 -30 57 -41 14 -12 39 -27 55
-34 17 -7 41 -24 55 -38 14 -14 35 -31 48 -37 15 -8 21 -18 18 -27 -3 -9 -1
-12 4 -9 6 3 10 2 10 -4 0 -6 8 -8 18 -4 15 5 15 4 2 -9 -8 -9 -39 -23 -68
-33 -46 -15 -80 -44 -66 -57 2 -3 -4 -11 -13 -19 -16 -13 -17 -12 -4 4 7 9 9
17 3 17 -12 0 -42 -44 -42 -62 0 -9 3 -9 10 2 6 10 10 11 10 3 0 -8 13 -13 30
-13 23 0 30 5 30 19 0 25 10 51 20 51 5 0 6 -10 2 -22 -3 -14 -2 -19 6 -14 19
11 14 46 -5 47 -14 0 -15 2 -3 6 8 4 20 13 27 22 7 9 13 12 13 7 0 -5 6 -3 14
3 10 8 16 9 21 1 6 -9 -16 -15 -40 -10 -5 1 -6 -2 -2 -6 15 -16 37 -12 52 9 8
11 12 24 9 29 -3 4 2 5 10 2 17 -7 11 -30 -16 -58 -14 -15 -15 -22 -6 -27 7
-5 15 -3 19 3 4 5 6 -2 6 -16 1 -14 -3 -26 -8 -26 -5 0 -9 -5 -9 -10 0 -6 13
-9 29 -8 16 1 28 5 25 9 -2 4 9 12 26 19 29 12 50 7 50 -11 0 -13 -28 -11 -32
2 -2 7 -9 5 -17 -5 -12 -14 -9 -16 28 -16 23 0 40 4 37 9 -4 5 0 12 6 14 8 3
6 6 -5 6 -10 1 -16 5 -13 9 10 16 -270 276 -388 360 l-46 33 0 -25z m374 -321
c4 -14 0 -24 -13 -32 -17 -11 -21 -9 -26 6 -7 23 -3 44 10 53 12 9 21 0 29
-27z"/>
<path d="M354 82 c3 -5 0 -13 -6 -15 -9 -4 -10 -6 -1 -6 17 -1 25 16 12 25 -7
4 -9 3 -5 -4z"/>
<path d="M188 422 c-10 -2 -18 -8 -18 -14 0 -6 8 -20 18 -31 16 -19 16 -19 -8
-12 -25 7 -24 7 3 -15 24 -19 31 -21 39 -9 7 10 8 8 3 -7 -4 -16 3 -27 27 -46
18 -14 94 -84 168 -156 l135 -131 963 -1 962 0 0 216 c0 172 -3 214 -12 206
-22 -17 -290 -119 -358 -135 -186 -45 -430 -60 -855 -52 -512 9 -699 39 -910
149 -74 38 -112 47 -157 38z m22 -22 c0 -5 -4 -10 -10 -10 -5 0 -10 5 -10 10
0 6 5 10 10 10 6 0 10 -4 10 -10z m35 0 c3 -5 -1 -10 -9 -10 -9 0 -16 5 -16
10 0 6 4 10 9 10 6 0 13 -4 16 -10z m115 -162 c0 -6 -6 -5 -15 2 -8 7 -15 14
-15 16 0 2 7 1 15 -2 8 -4 15 -11 15 -16z"/>
<path d="M1458 333 c7 -3 16 -2 19 1 4 3 -2 6 -13 5 -11 0 -14 -3 -6 -6z"/>
<path d="M1133 253 c9 -2 23 -2 30 0 6 3 -1 5 -18 5 -16 0 -22 -2 -12 -5z"/>
<path d="M1258 253 c12 -2 30 -2 40 0 9 3 -1 5 -23 4 -22 0 -30 -2 -17 -4z"/>
<path d="M1378 253 c12 -2 32 -2 45 0 12 2 2 4 -23 4 -25 0 -35 -2 -22 -4z"/>
<path d="M189 215 c-1 -3 -2 -11 -3 -17 0 -7 -11 -14 -23 -16 -14 -2 -20 -8
-16 -18 3 -8 0 -14 -6 -14 -6 0 -11 -5 -11 -12 0 -6 -7 -19 -16 -29 -10 -11
-12 -19 -5 -23 6 -4 18 3 28 15 10 12 26 30 36 41 9 10 17 21 17 24 0 4 8 13
18 20 16 13 16 13 -1 14 -10 0 -15 5 -12 10 3 6 4 10 1 10 -3 0 -7 -2 -7 -5z"/>
<path d="M47 194 c3 -9 -3 -11 -19 -7 -16 3 -19 2 -10 -5 11 -7 11 -10 -2 -15
-9 -4 -16 -12 -16 -19 0 -9 3 -9 12 0 7 7 20 12 30 12 11 0 18 7 18 19 0 11 6
21 13 24 6 3 2 4 -9 4 -13 -1 -20 -6 -17 -13z"/>
<path d="M24 135 c-14 -9 -21 -27 -23 -59 -1 -27 2 -46 9 -46 5 0 10 5 10 12
0 6 3 9 6 6 3 -4 1 -16 -6 -27 -10 -19 -8 -21 25 -21 25 0 35 4 35 16 0 9 -5
12 -12 8 -7 -4 -8 -3 -4 4 4 8 0 12 -11 12 -15 0 -15 2 -3 10 9 6 20 5 30 -3
13 -11 13 -10 1 6 -7 9 -21 17 -30 17 -13 0 -14 2 -1 9 8 6 18 7 22 5 4 -3 5
2 2 10 -3 9 -11 13 -16 10 -6 -4 -8 1 -4 14 9 27 -6 35 -30 17z"/>
<path d="M246 68 c3 -5 10 -6 15 -3 13 9 11 12 -6 12 -8 0 -12 -4 -9 -9z"/>
<path d="M274 40 c-26 -10 -40 -40 -19 -40 8 0 15 8 15 18 0 11 3 13 8 6 5 -9
10 -8 19 2 16 17 4 24 -23 14z"/>
</g>
</svg>
