<?xml version="1.0" standalone="no"?>
<!DOCTYPE svg PUBLIC "-//W3C//DTD SVG 20010904//EN"
 "http://www.w3.org/TR/2001/REC-SVG-20010904/DTD/svg10.dtd">
<svg version="1.0" xmlns="http://www.w3.org/2000/svg"
 width="1024.000000pt" height="1024.000000pt" viewBox="0 0 1024.000000 1024.000000"
 preserveAspectRatio="xMidYMid meet">

<g transform="translate(0.000000,1024.000000) scale(0.100000,-0.100000)"
fill="#000000" stroke="none">
<path d="M4355 9036 c-27 -13 -160 -73 -295 -134 -135 -60 -321 -145 -415
-187 -93 -42 -282 -128 -420 -190 -137 -62 -331 -150 -430 -195 -99 -45 -241
-109 -315 -142 -74 -33 -211 -95 -305 -138 -160 -73 -281 -128 -718 -321 -100
-44 -197 -90 -215 -102 -68 -46 -63 159 -60 -2577 l3 -2475 22 -41 c13 -24 34
-46 50 -53 16 -6 156 -45 313 -85 157 -40 445 -115 640 -165 195 -50 396 -103
445 -116 232 -64 665 -180 805 -216 85 -22 389 -103 675 -179 286 -76 617
-163 735 -194 118 -31 296 -78 395 -104 99 -26 313 -81 476 -122 286 -71 297
-73 342 -60 28 7 139 72 275 161 125 81 279 181 342 222 161 104 1048 683
1714 1117 308 201 582 386 610 411 l51 47 0 2498 c0 2476 0 2499 -20 2548 -28
69 -59 82 -273 116 -97 16 -289 47 -427 69 -137 23 -421 68 -630 102 -209 33
-472 75 -585 94 -202 34 -292 48 -1145 185 -236 38 -594 96 -795 129 -201 33
-426 69 -500 81 -74 11 -162 25 -196 30 -82 13 -91 12 -149 -14z m182 -336
c40 -9 253 -47 863 -150 157 -27 485 -83 730 -125 245 -42 603 -103 795 -136
193 -33 510 -87 705 -120 195 -33 400 -68 455 -76 55 -9 104 -19 110 -24 5 -6
4 -9 -3 -9 -7 0 -104 -50 -215 -111 l-202 -112 -220 43 c-121 23 -420 80 -665
126 -245 47 -575 110 -735 140 -249 47 -1002 188 -1430 268 -71 13 -239 43
-372 67 -134 24 -243 46 -243 49 0 4 367 177 380 179 3 0 24 -4 47 -9z m-537
-401 c671 -125 1116 -210 2040 -389 201 -39 529 -102 730 -141 201 -38 427
-82 502 -97 76 -14 134 -29 130 -33 -4 -4 -108 -60 -231 -125 l-223 -117 -302
62 c-165 34 -407 84 -536 111 -129 27 -435 90 -680 140 -245 50 -690 142 -990
205 -300 63 -678 142 -840 175 -162 33 -295 62 -297 64 -1 1 22 13 52 25 30
13 126 56 212 97 121 56 165 72 188 68 17 -2 127 -23 245 -45z m-947 -349 c78
-17 183 -39 232 -50 322 -71 1606 -338 2255 -470 267 -54 605 -124 751 -154
147 -31 274 -56 283 -56 45 0 10 -22 -344 -212 -96 -52 -189 -100 -206 -107
-27 -11 -72 -4 -375 54 -732 141 -1280 247 -1419 275 -80 16 -228 45 -330 64
-102 20 -405 78 -675 131 -269 52 -614 118 -765 146 -151 28 -282 53 -290 56
-13 5 -13 6 0 11 8 3 130 59 270 125 290 136 464 217 468 217 2 0 67 -14 145
-30z m-813 -780 c338 -67 1079 -213 1645 -325 1201 -239 1823 -361 1882 -370
75 -12 72 -2 75 -273 2 -183 0 -242 -9 -242 -7 0 -34 4 -60 10 -26 5 -302 59
-613 120 -814 160 -2030 404 -2275 455 -115 24 -302 62 -415 84 -444 86 -856
172 -882 182 -20 8 -28 20 -32 47 -6 41 -6 433 0 444 2 3 19 2 37 -3 17 -5
309 -63 647 -129z m6290 -1718 c0 -1467 -3 -1851 -12 -1864 -7 -9 -218 -144
-468 -300 -250 -157 -493 -310 -540 -340 -47 -31 -227 -144 -400 -252 -173
-107 -344 -213 -379 -236 -35 -22 -65 -39 -65 -38 -1 2 0 33 2 69 l4 67 401
253 c494 311 983 621 1179 746 l148 94 0 1782 c0 980 0 1788 0 1794 0 11 102
71 122 73 4 0 8 -832 8 -1848z m-6803 953 c70 -14 143 -30 161 -36 l32 -11 0
-1413 c0 -1158 -2 -1414 -13 -1418 -13 -5 -333 56 -342 65 -3 3 -6 645 -7
1427 l-3 1422 22 -6 c12 -3 79 -16 150 -30z m2108 -387 c495 -100 903 -184
906 -187 4 -3 -64 -67 -149 -141 -86 -74 -228 -198 -316 -275 -88 -77 -178
-156 -200 -175 -23 -19 -86 -74 -140 -122 -55 -49 -102 -88 -106 -88 -3 0 -51
57 -105 126 -55 69 -145 183 -200 253 -453 572 -596 753 -612 777 -18 28 -18
28 2 20 11 -4 425 -89 920 -188z m-1527 85 c27 -38 91 -122 143 -188 51 -66
124 -161 163 -212 39 -50 140 -180 225 -290 85 -109 209 -268 275 -353 65 -85
159 -205 208 -266 48 -62 88 -119 88 -127 0 -8 -73 -80 -162 -158 -89 -79
-187 -167 -218 -195 -30 -27 -86 -77 -125 -110 -38 -32 -133 -115 -210 -184
-77 -69 -174 -155 -216 -190 -42 -36 -110 -95 -151 -132 -41 -38 -77 -68 -79
-68 -2 0 -4 572 -4 1270 0 699 3 1270 6 1270 4 0 29 -30 57 -67z m3388 -443
c66 -12 125 -25 132 -29 9 -5 12 -358 12 -1502 l0 -1494 -32 -2 c-18 -2 -85
10 -148 25 l-115 27 -3 1503 c-2 1429 -1 1503 15 1499 10 -3 72 -15 139 -27z
m-458 -1851 l-3 -562 -50 64 c-27 35 -104 134 -171 219 -505 641 -804 1035
-804 1058 1 9 46 55 102 102 55 47 189 163 297 259 108 96 293 257 411 359
l215 184 3 -561 c1 -308 1 -814 0 -1122z m-1432 364 c15 -21 66 -87 114 -148
47 -60 185 -236 306 -390 232 -295 580 -740 598 -764 9 -12 7 -13 -14 -8 -14
4 -144 34 -290 66 -146 33 -391 89 -545 125 -154 35 -354 81 -445 101 -91 20
-282 62 -425 95 -143 32 -279 62 -302 66 -24 4 -43 8 -43 10 0 5 87 85 231
210 75 66 207 182 294 259 265 234 476 415 485 415 4 0 20 -17 36 -37z m-2002
-949 c132 -31 306 -71 386 -89 80 -19 213 -50 295 -70 83 -19 267 -62 410 -96
143 -33 406 -96 585 -139 179 -43 487 -118 685 -165 198 -48 468 -113 600
-145 132 -33 373 -91 535 -130 394 -95 502 -121 522 -126 16 -5 18 -31 20
-290 2 -156 2 -284 1 -284 0 0 -143 36 -317 80 -348 88 -3898 979 -3934 987
-12 3 -25 10 -29 15 -6 11 -11 508 -4 508 1 0 112 -25 245 -56z"/>
</g>
</svg>
