<?xml version="1.0" standalone="no"?>
<!DOCTYPE svg PUBLIC "-//W3C//DTD SVG 20010904//EN"
 "http://www.w3.org/TR/2001/REC-SVG-20010904/DTD/svg10.dtd">
<svg version="1.0" xmlns="http://www.w3.org/2000/svg"
 width="1024.000000pt" height="1024.000000pt" viewBox="0 0 1024.000000 1024.000000"
 preserveAspectRatio="xMidYMid meet">

<g transform="translate(0.000000,1024.000000) scale(0.100000,-0.100000)"
fill="#000000" stroke="none">
<path d="M5060 9370 c-48 -20 -226 -90 -830 -323 -3484 -1347 -3264 -1260
-3305 -1309 l-25 -30 2 -593 3 -593 30 -39 c22 -28 59 -52 135 -89 l105 -52 5
-1800 5 -1800 25 -27 c27 -29 139 -85 610 -305 168 -79 379 -177 470 -220 502
-235 672 -315 930 -435 513 -239 1294 -606 1710 -805 221 -106 239 -113 310
-117 l75 -5 460 230 c253 126 793 398 1200 604 407 207 1028 520 1381 696 372
187 657 336 680 356 l39 34 5 1793 5 1793 99 52 c60 31 115 68 138 92 l38 41
0 580 c0 346 -4 590 -10 605 -5 14 -26 36 -47 50 -54 35 -645 271 -2023 808
-790 308 -2155 829 -2168 827 -4 0 -27 -9 -52 -19z m320 -465 c424 -154 864
-322 1765 -672 347 -135 664 -258 705 -273 82 -30 740 -288 804 -315 l40 -17
-90 -39 c-49 -21 -379 -163 -734 -315 -355 -152 -1005 -430 -1445 -619 -440
-188 -878 -375 -972 -415 l-173 -72 -347 137 c-192 76 -715 284 -1163 462
-1148 458 -2024 806 -2097 834 -35 13 -63 26 -63 30 0 10 1794 716 2795 1099
248 95 506 194 575 220 69 27 128 49 133 49 4 1 124 -42 267 -94z m-3760
-1665 c1043 -411 3492 -1390 3508 -1403 9 -7 12 -96 12 -383 0 -212 -4 -374
-9 -374 -5 0 -744 307 -1642 681 -899 375 -1760 733 -1914 796 -154 62 -290
118 -302 123 l-23 10 0 346 c0 325 1 346 18 341 9 -2 168 -64 352 -137z m7383
-551 c-5 -3 -78 -38 -163 -77 -85 -38 -389 -176 -675 -307 -286 -130 -864
-393 -1285 -585 -421 -191 -903 -411 -1073 -489 -169 -77 -312 -141 -317 -141
-6 0 -10 140 -10 384 l0 384 168 72 c92 40 232 101 312 135 80 34 314 135 520
225 206 89 598 257 870 375 440 189 1281 552 1555 671 l100 43 3 -341 c1 -188
-1 -345 -5 -349z m-7022 -680 c239 -100 526 -220 639 -266 501 -208 626 -260
975 -406 204 -85 552 -231 775 -325 223 -93 468 -196 545 -227 77 -32 157 -66
178 -76 l37 -19 0 -1720 c0 -946 -3 -1720 -7 -1720 -5 0 -60 25 -123 56 -229
111 -914 433 -2140 1006 -1212 567 -1305 611 -1317 621 -10 7 -13 346 -13
1633 0 932 4 1624 9 1624 5 0 204 -82 442 -181z m6749 -1451 l0 -1613 -698
-353 c-383 -194 -1110 -562 -1615 -817 -505 -256 -923 -465 -928 -465 -5 0 -9
652 -9 1693 l0 1694 223 101 c122 55 411 187 642 292 231 106 672 307 980 447
308 140 706 322 885 403 179 81 363 166 410 188 47 22 91 41 98 41 9 1 12
-328 12 -1611z"/>
<path d="M2504 5261 c-99 -45 -155 -137 -162 -269 -9 -157 51 -290 169 -377
73 -53 65 -50 479 -220 179 -73 417 -172 528 -219 112 -47 224 -91 248 -97
108 -27 238 16 301 99 41 54 53 98 53 193 0 149 -82 309 -193 373 -23 14 -157
70 -297 124 -140 55 -431 170 -647 256 -216 86 -402 156 -415 156 -13 0 -41
-9 -64 -19z"/>
</g>
</svg>
